
<svg display="none" version="1.1" xmlns="http://www.w3.org/2000/svg" xmlns:xlink="http://www.w3.org/1999/xlink">
  <defs>
	
	
	<style type="text/css">
	.st0{fill:#FFFFFF;}
	.st1{enable-background:new    ;}
	.st2{fill:#FFFFFF;stroke:#000000;stroke-miterlimit:10;}
</style>
	
	
	<symbol id="page_top" viewBox="0 0 29.6 24.5">
		<polygon id="XMLID_4_" points="29.6,24.5 14.8,0 0,24.5 	"/>
	</symbol>
      
    <symbol id="arrow_down" viewBox="0 0 32 22.6">
       <polygon id="XMLID_1_" class="st0" points="32,0 16,22.6 0,0 "/>
    </symbol>
      
    <symbol id="icon_menu" viewBox="0 0 32 32">
       <path d="M0,0v32h32V0H0z M27.5,27.5h-23v-23h23V27.5z"/>
    </symbol>
      
    <symbol id="icon_location" viewBox="0 0 32 32">
        <path d="M15.817 32c-3.109-3.2-6.491-6.4-9.6-9.966-4.846-5.486-3.84-14.354 1.829-19.017 8.229-6.766 18.834-1.006 20.48 7.863 0.731 4.114-0.091 7.954-2.743 10.971-3.109 3.566-6.583 6.674-9.966 10.149zM11.063 13.257c0 2.834 2.377 5.394 5.029 5.394 2.743 0 5.12-2.469 5.12-5.303s-2.377-5.394-5.029-5.394c-2.743 0-5.12 2.469-5.12 5.303z"></path>
    </symbol>
      
    <symbol id="icon_search" viewBox="-1 2 32 32">
       <path d="M30,29.2l-7.6-6.4c-0.8-0.7-1.6-1-2.3-1C21.9,19.7,23,17,23,14c0-6.6-5.4-12-12-12S-1,7.4-1,14s5.4,12,12,12
        c3,0,5.7-1.1,7.8-2.9c0,0.7,0.3,1.5,1,2.3l6.4,7.6c1.1,1.2,2.9,1.3,4,0.2C31.3,32.1,31.2,30.3,30,29.2z M11,22c-4.4,0-8-3.6-8-8
        s3.6-8,8-8s8,3.6,8,8S15.4,22,11,22z"/>
        <circle cx="11" cy="14" r="3.3"/>
    </symbol>
      
    <symbol id="icon_insta" viewBox="0 0 32 32">
        <path d="M16 2.881c4.275 0 4.781 0.019 6.462 0.094 1.563 0.069 2.406 0.331 2.969 0.55 0.744 0.288 1.281 0.638 1.837 1.194 0.563 0.563 0.906 1.094 1.2 1.838 0.219 0.563 0.481 1.412 0.55 2.969 0.075 1.688 0.094 2.194 0.094 6.463s-0.019 4.781-0.094 6.463c-0.069 1.563-0.331 2.406-0.55 2.969-0.288 0.744-0.637 1.281-1.194 1.837-0.563 0.563-1.094 0.906-1.837 1.2-0.563 0.219-1.413 0.481-2.969 0.55-1.688 0.075-2.194 0.094-6.463 0.094s-4.781-0.019-6.463-0.094c-1.563-0.069-2.406-0.331-2.969-0.55-0.744-0.288-1.281-0.637-1.838-1.194-0.563-0.563-0.906-1.094-1.2-1.837-0.219-0.563-0.481-1.413-0.55-2.969-0.075-1.688-0.094-2.194-0.094-6.463s0.019-4.781 0.094-6.463c0.069-1.563 0.331-2.406 0.55-2.969 0.288-0.744 0.638-1.281 1.194-1.838 0.563-0.563 1.094-0.906 1.838-1.2 0.563-0.219 1.412-0.481 2.969-0.55 1.681-0.075 2.188-0.094 6.463-0.094zM16 0c-4.344 0-4.887 0.019-6.594 0.094-1.7 0.075-2.869 0.35-3.881 0.744-1.056 0.412-1.95 0.956-2.837 1.85-0.894 0.888-1.438 1.781-1.85 2.831-0.394 1.019-0.669 2.181-0.744 3.881-0.075 1.713-0.094 2.256-0.094 6.6s0.019 4.887 0.094 6.594c0.075 1.7 0.35 2.869 0.744 3.881 0.413 1.056 0.956 1.95 1.85 2.837 0.887 0.887 1.781 1.438 2.831 1.844 1.019 0.394 2.181 0.669 3.881 0.744 1.706 0.075 2.25 0.094 6.594 0.094s4.888-0.019 6.594-0.094c1.7-0.075 2.869-0.35 3.881-0.744 1.050-0.406 1.944-0.956 2.831-1.844s1.438-1.781 1.844-2.831c0.394-1.019 0.669-2.181 0.744-3.881 0.075-1.706 0.094-2.25 0.094-6.594s-0.019-4.887-0.094-6.594c-0.075-1.7-0.35-2.869-0.744-3.881-0.394-1.063-0.938-1.956-1.831-2.844-0.887-0.887-1.781-1.438-2.831-1.844-1.019-0.394-2.181-0.669-3.881-0.744-1.712-0.081-2.256-0.1-6.6-0.1v0z"></path>
        <path d="M16 7.781c-4.537 0-8.219 3.681-8.219 8.219s3.681 8.219 8.219 8.219 8.219-3.681 8.219-8.219c0-4.537-3.681-8.219-8.219-8.219zM16 21.331c-2.944 0-5.331-2.387-5.331-5.331s2.387-5.331 5.331-5.331c2.944 0 5.331 2.387 5.331 5.331s-2.387 5.331-5.331 5.331z"></path>
        <path d="M26.462 7.456c0 1.060-0.859 1.919-1.919 1.919s-1.919-0.859-1.919-1.919c0-1.060 0.859-1.919 1.919-1.919s1.919 0.859 1.919 1.919z"></path>
    </symbol>


	
	
	
	<!----------------------------------------------------------------------------------------------日本地図-->
	
	<symbol id="hokkaido" viewBox="0 0 850.5 935.7">
			<path d="M565.2,282.6c0,0-9.4-7.7-0.7-21.7c0,0,7.7-9.8,0.7-19.8c0,0-2.3-5.3-7-5.8c0,0-1.1,0.1-2.4-2.5
            c0,0-2.1-3.1-4-4.4c0,0-3.3-2.5-1.2-6.8c0,0,2.9-3.6,2.6-9.9c0,0-0.8-9.2,0.9-11.4s0.3-2.6,7.2-3.4c0,0,1.2,0,3.3-1.9
            c0,0,5.3-5.3,5.5-5.4c0.1-0.2,0.5-0.2,0.4-1.1c0,0,1.4-0.2,2.4,2.6c0,0,1,2.5,2.9,0.5c0,0,0.4,1.1,0.6-3.1c0,0,0-1.2,2.3-3.6
            c0,0,5.9-5.9,6.4-6.5s4.2-4-1.3-8c0,0-6.7-8.8-7-11.4c0,0,0.2-0.6,0.9-1c0,0,0.4-0.3,0.4-2.3c0,0-0.1-2,1.6-2.2
            c0,0,1.5-0.4,3.7-1.9c0,0,0.8-0.4,0.1-0.6c0,0,1.6-0.4,7.9,4.9c6.3,5.2,7.4,5.4,7.8,5.6c0.4,0.2,3.4,1.8,4.4-0.4
            c0,0-0.7,1.3,2.8-0.1c3.5-1.4,2.8-1.2,2.8-1.2s1.4-0.9,2.3,1.6s3.2,3.1,4.7,3.3c1.5,0.2,6.3,2,12.1-6.3s3.8-10.9,0.6-16.7
            c0,0-1-1-0.8-2.3l0.7-3.6c0,0,0.5-1.1-0.5-3.2c0,0-1.6-5.3-1-7.1c0.7-1.8,0.3-3.2,9.4-8.1c0,0,7.6-1.7,5.9-18.5c0,0-0.5-7,0-10.7
            c0,0,0.8-5.7,1-6.1s1.9-3.2,2.3-4.2c0.4-1.1,1.2-2.3,1.2-6.7c0,0,0.6-2.8,0.9-5.2c0.3-2.4,1.3-10.1-2.1-20.4
            c-3.4-10.3-7-17.1-7-17.1s-2.3-4-1.7-7.8c0,0,1.1-2.3,1.8-3.3c0,0,0.5-1.5,0.2-2.5c0,0,1.7-5.2,1.8-6.3s0.6-2.3-0.4-3.3l1.6,2.4
            c0,0,0.1,1.1,1.6,0.8l1.8-0.3c0,0-0.1-0.3,1.7,0.6c0,0,1.8,1,3.9-3.9l1.8-3.8c0,0,1.2-2,3.3-0.3c0,0,1.3,1.4,3.7,5.3
            c2.4,3.9,3.1,3.9,3.1,3.9s3.6,3.1,6.8,7.2c3.2,4.1,5.7,7.4,7.3,8.3c1.6,1,7.4,7.6,7.7,8.7c0.4,1.1,1,4,2.5,6.2
            c1.5,2.2,17.8,25.6,22.3,28s0.7,1.4,2.4,0.9c0,0-0.3,0.2,0.9,1.3s11.5,9.3,12.5,9.5c0,0,0.2,0.1,4,3.7c3.8,3.5,10,5.8,17.5,9.1
            c0,0-0.4,0.4-1.2,0c-0.9-0.4-2.2-1.2-2.7-0.5c0,0,1.9,5.2,2.4,5.8l0.3,0.4c0,0,0,0.3,0.4-0.5c0.4-0.9,1.1,0,1.1,0.2
            c0,0,0,0.3,0,0.5s0,0.1,0,0.1s-0.3-0.2,2.4-0.2c2.7-0.1,5-0.2,5-0.4c0,0-0.1,0.5,1.1,1.5c0,0,1,0.8,1.6-1.1c0,0,0.1-2.6,4.8-1.7
            c0,0,3.8,0.8,6.1,1.8c0,0-2-1.1-3.7,3c0,0-1.2,3.1,1.3,3.4c2.5,0.3,2.8-2.6,3.2-4s0.9-2.4,1.7-2.5c0,0,0.7-0.5,2.8,6.3
            c0,0-1,1.8,1.9,3.4c0,0,3.6,2.2,12.1,3c0,0,6.2,0.9,9.6-0.9c3.4-1.8,3.9-2.5,7-6c3.1-3.5,4.9-5.4,6.7-6.6s8.4-7.6,10.3-10
            s4.7-5.2,4.6-6.1c0,0,2.8,2.7,0.5,8.3c0,0-1.4,3.3-4.1,6c0,0-0.9,0.8-1,4.2c0,0-0.1,2.1-1.7,3.4c0,0-0.3-0.6-2.5,4.8
            c0,0-0.6,1.1-1.9,2.6c0,0-2.8,2.7-1.7,8.8c0,0,1.4,6.3,3.4,9.1c0,0,0.2,1.3,5.2,2.9c0,0,3.4,0.7,4.4,1.7c1,1.1,1.2,2.5,0.3,2.6
            s-2.2-0.3-2.3-0.4c-0.1-0.1-0.5-0.2,1.5-0.5c0,0,1.2-0.2,0.8-1.1c0,0,0.1-0.4-0.6,0.1c0,0-0.2-0.2,0.3-0.3c0,0,0-0.7-2.6-0.4
            c0,0-0.3-0.3,0.1-0.5c0,0-0.6,0.2-0.8,0.2c0,0-0.9-1.8-3.6-1.7c0,0-1.2,0.4,0.6,0.8c0,0,1.5,0.8,3.1,8c1.6,7.2,3.1,11.2,5.1,12.2
            c0,0-3.9-3.2-5.4-2.7c0,0-2.9,0.1,0.5,1.8c3.4,1.7,3.7,1.8,3.7,1.8s-1.4-0.2-1.7,1c0,0,0,0.3,1.1,0.1c0,0,6.2,1.4,6.6,1.4
            c0,0,0.4-0.3-2.6-1.1c0,0,0.3-0.2,0.9-0.2c0,0-1-0.4-1.2-0.8c0,0,1.5,1.1,3.7,1.5c0,0,2.6,0.6,1.9,2.8c0,0,0.7-1.5,0.1-1.9
            c-0.6-0.4-1.6-0.7-0.3-2.1c1.3-1.4,6.5-6.1,6.5-6.1s0.9-1.5,2.8-1.4c1.9,0.1,4.2,1,5.8,1.9c0,0-2.6,2-4.6,3c0,0-1.1,0.4-3.1-0.3
            c0,0-0.8-0.2-1.2-0.1c0,0,0.3-0.1-0.9,1.7c0,0-1.2,1.6-1.4,1.6c0,0,0.1,1.2-2.5,4.4c0,0-0.8,1.1-0.8,1.3l0.8,0.8
            c0,0-1.1,0.5-1.3,0.4s-0.2,0.3,0.5,1c0,0,0.4,0.6-0.9,0.6c0,0-2.8-1.8-4.2-1.6s-2.6,0.2-5.8,1.6c-3.2,1.4-4.6,1.5-5,1.5
            c-0.4,0.1-4.4,0.4-6.2,5.5c0,0-1.3,6.8-8.3,4.3c0,0-4.3-1.7-2.8-3.2c0,0-0.7,0.6,1,1.1c1.7,0.6,2.7,0.4,2.7,0.4s1.7-0.1,0.3-1.3
            c-1.3-1.2-3.1-1.9-3.4-1.8c-0.3,0.1-0.8-0.1-0.4,1.2c0,0-0.5-0.6-3.2,0.8s-3.8,4.4,0,7c0,0-1.2-0.7-7.9-0.9c0,0-5.3-0.3-6,0.4
            c0,0-1,0.6-4.1-0.2c0,0-2.5-0.8-3.1-1.1c0,0-0.5-0.2-0.5-0.4c0-0.2,0.1-0.4,0.3-0.8c0,0,0.5-0.7-0.7-0.8c-1.2-0.1-7.2-0.3-10.2,1.3
            c-3,1.7-4.8,1.9-11.8,8s-6,6.1-13.1,13c-7.1,6.9-14.8,18.4-15.8,26c0,0-0.8,3.4,0.1,6.8c0.9,3.4,0.2,6.3-2.5,12.2
            c0,0-1.2,2.1-1.1,5.5c0,0-9.8-11.1-13.3-12.1c0,0-3.3-1.8-6.5-2.1s-12.7-4.9-14.1-5.7s-4.9-3-6.2-4.7c0,0-0.6-1.1-4.4-2.8
            c0,0-3.3-1.7-3.9-2.3c-0.6-0.6-3.2-3.6-3.4-3.8s-2.5-2.6-6.4-2.8c0,0-2.8-0.4-3.1-0.8c-0.3-0.3-0.2-1.3-7-6.3c0,0-2.9-2.1-3.2-2
            c-0.2,0.1-6-2.1-15,0.7c0,0-5.9,2.1-9.9,5.2s-8.5,6.6-9.1,7.3c-0.6,0.8-2.3,2-4.1,4.5c-1.8,2.5-3,3.6-3.2,3.6
            c-0.2,0-3.7-1.4-2.7-2.5l0.5-0.3c0,0,1.4,0.8,1.7,1.2c0,0-1.5-2.2-2-2.9c-0.5-0.7-3.6-5.7-3.8-5.9c-0.2-0.2-2.5-3.6-3.3-3.1
            c0,0-1.3,0.4-1.3-2c0,0,0.6-2.6-2.2-3c0,0-1.6-0.5-6,0.3l-2,0.3c0,0-0.5,0.1-1-0.4c-0.5-0.5-3.8-1.7-6.2,1.1s-3.9,5.4-6,11.8
            c-2.1,6.4-1.2,8.2-0.4,9.2c0,0,0.4,0.6,2.9,2c0,0,3.2,1.9,5.4,4c0,0,3.5,2.9,5,3.1s1.3,0.5,4.7-0.7c3.5-1.2,4.9,0.3,6.6,2.7
            c1.6,2.4,1,2.9,5.3,5.9c0,0,2.5,1.9,2.4,3.8c0,0,0,1.6,4.7,3.3c4.8,1.8,5.3,3.3,5.3,3.3s1.4,2.6,1.7,2.5c0,0,0.7,0.8-1.1,0.9
            c-1.8,0.1-1.7-0.5-4.9,3c0,0-1.5,2-3,2.2s-2.6-0.9-3.5-1.4c-0.9-0.5-1.9-1.2-2.8-1.2s-1.4-0.1-3-0.1c-1.6,0-5.6,0-5.2,0.6
            c0,0-1.1-0.8-0.2-1.3c0,0,1.5-0.5,1.6-0.6c0.2-0.1,1-0.5-0.3-1.6c0,0-2.6-3-4.7,0.6c0,0-2,3.7-2.6,4.1c0,0-1.3,1.2-4,2.5
            c0,0-2.2,0.7-2.8,3.3c-0.6,2.6-0.6,3.1-0.2,5.3c0.4,2.2-0.7,3.1-2.6,3.6c-1.9,0.5-4.1,0.8-5.9,2.8c0,0-1.2,1.1-2,3.5
            c0,0-0.2,0.5-0.5,0.6c-0.3,0.2-0.6,0.2-1.4,0c-0.8-0.2-1.7-0.7-1.7-0.7s-0.8-0.5-1.3-0.5c-0.5-0.1-0.9,0-1.2,0.1
            c-0.3,0.1-0.8,0.2-1.2,0L565.2,282.6z"/>
            <text class="map_text"; transform="matrix(1 0 0 1 523.691 79.8442)">Hokkaido</text>
	</symbol>
		
	<symbol id="tohoku" viewBox="0 0 850.5 935.7">
            <path d="M541.3,469.9c0,0,1.7-6.7,4.2-8.1c0,0,0.4,0.2,2.1-1.8c0,0,2.8-3.3,2.9-3.4c0.1-0.1,1.8-1.6,2.5-4.8
            c0.7-3.2,0.9-4.1,0.9-4.1s0.6-2.7,1.2-3.3c0,0-0.1-1.1,1-3.8c0,0,1-2.7,1-3.2c0,0,0.3-1,0-2.3c0,0,0-1.5,0.6-2.2c0,0,0.4-0.7,0.4-3
            c0,0-0.1-2.8,0.9-4.3c0,0,1.2-1.8,2.9-3.9c1.7-2,1.8-3.5,1.9-5.1c0,0,0.3-3.9,0.9-6.4c0.6-2.6,1.3-7.3,1.4-7.4
            c0-0.1,0.2-1.9-0.3-4.7c0,0-0.8-5.1,0.5-5.2c0,0-0.9-0.1-2-1.8c0,0-1.7-3-2.2-4.5c-0.5-1.5-1.2-3.8-0.4-4.3
            c0.8-0.5,3.2,2.4,3.2,2.4s0.8-4.6,1-5c0.2-0.4,1.5-2.9,0.6-5.1c0,0-0.6-1.5-2.7-3.4c0,0,2,2,2.2,5.6c0.1,3.6-1.8,5.5-5.5,3.7
            c0,0,0.6,1.7-1.4,2.9c0,0-2.2,1.1-3,1.3c0,0-3.4,1-3.8,1.2c-0.4,0.2-1,0.5-2.2-1c0,0-1.4-2-1.6-3.6c-0.3-1.6,0-1.8,0.2-2
            c0,0-0.7,0.8-0.7-0.2c-0.1-1,0.3-2.7,0.3-2.7s-0.2,0.7,1.3,1.6c0,0,1,0.6,2.9,1.2c1.8,0.7,2.7-0.3,3.3-0.7c0,0,1.4-1.2,2.4-2.8
            c0.9-1.6,1.6-2.8,1.9-3.6s2-4.7,2-5.2c0,0,1.1-3.4,1.9-4.5c0,0,0.1-0.1,0.2-1.1c0.1-1,0.2-6.2,0-7s-0.1-1.5-2.3-3.2
            c0,0-1.3-1.1-1.4-1.4c0,0-0.3-1.3-0.3-2.2c0,0-0.4-3.6-0.2-4.6c0.1-1,0-1.4,0-1.4s-0.4-0.9-1-1.6s-3.1-3.4-3.1-3.4s1.8-0.9,4.4-3.6
            c0,0,2.2-2.5,2.4-4.9c0,0-0.1-2,4.4-1c0,0,2.8,0.8,3.8-0.3c0,0,1.1-0.7,2.9-1.2c1.8-0.6,3-3.7,3.4-5.1c0.4-1.4,1.3-6.1,1.3-9.6
            s0.4-3.9-0.3-6.1c0,0-0.4-1.9-2.3-1.7c0,0-2.8-0.1,0-1c0,0,1.9-0.5,2,0.2c0,0,0.8-3.1,0.8-4l0.5-3.2c0,0,5.1-1.3,5,2.6
            c0,0-0.1,1.7,2.9,0c3-1.7,4-1.8,4-1.8s1.2-0.3,2,1.3c0.8,1.6,0.8,2.2,0.9,3s0,2.6,0.1,3c0.1,0.3,0.3,1.8,0.4,2.2s0.4,2.9,0.6,3.8
            c0.2,0.9,1.7,9.5,3,11.3c0,0,2.2,5.5,5.8-0.2c0,0,4.9-6.2,0.7-6.2c0,0,0.8,0.1,1.5-1.9c0.7-2.1,0.1-2.4,0.1-2.4s0.3,0.7,3,1.5
            c0,0,1.8,0.7,1.8,3c0,0-0.1,1.1,0.8,1.2c0,0,3.4,1.1,3.9,1.5s2.1,2.1,2.9,2c0.8-0.1,1.4-0.9,2.3-1.8c0.8-0.9,2-2,2.2-2.4
            c0.2-0.4,1.1-2.1,1.1-5.2s0-4.9,1.2-7.4c0,0,1.1-2-2-7.7c0,0-1.4-2.4-2.4-2.3c0,0-0.1-0.6-2.5,3.1c0,0-1.2,1.7-2.5,2.2
            c-1.3,0.5-3.4,0.5-4.1,0.4c-0.7-0.1-2.7,0.7-4,1.4s-4,2.1-4.1,2.2s-3.9,2.2-2.6-3.8c0,0,1.8-6.9,1.8-6.9c0-0.1,0.4-2,0.4-2
            s0.1-0.8,0.1-1.4s0.3-1.7,0.5-2.2c0.2-0.5,2.4-4.8,2.5-4.9c0-0.1,2.5-4.3,1.3-5.7c0,0,1.2,2,5.8,3.7c0,0,3.4,1,5.3,3.5
            c1.9,2.5,5.2,4,5.2,4s9,4.4,11.3-3.4c0,0,0.3,3.7-1.2,8.9s-1.8,6.3-1.9,6.6c-0.1,0.3-0.9,2.4-1,7.5c-0.1,5.1,0.8,12.9,1.1,14.9
            c0.3,1.9,1.4,9.4,1.4,9.4s1.1,5.9,1.9,7.4c0.9,1.5,1.7,3.8,3.4,4.4c0,0-0.2,0.2,2.1-0.1c0,0,0.2-0.2,1,1s3.9,3.7,3.9,3.7
            s0.9,0.7,2.4,3c1.5,2.3,3.9,6.5,4.6,8.1c0.6,1.6,2.3,5.6-0.4,6.5c0,0,0.8,0,3.1,1.7c0,0,1.2,1,1.1,1.4c-0.1,0.4-0.4,0.7-0.6,1
            c-0.3,0.3-2,1.8-0.6,3.6c1.4,1.8,1.8,2.7,2.6,3.2c0.8,0.5,2.7,2.3,2.7,2.8c0,0.5,0,0.5-0.5,3c-0.5,2.5,0.5,3.1,0.8,3.3
            c0.3,0.2,1.4,0.4,1.8,5.7c0.4,5.3-0.8,12.5-1.8,13.6c0,0,1.4-2.2,1.7-2.9c0.3-0.7,0.9-1.3,1.1-1.4c0,0,0.3,1.7,0.7,2.7
            s1.4,4.8,1.4,5.2c0,0-2.9,2.6-4.1,4.4c0,0-0.5,0.7-0.1,1c0.4,0.3,0.8,0.4,1.9-0.5l1.6-1.5c0,0,0.2-0.2,0.4-0.1c0,0,0.1,0.2,0.2,0.8
            c0.1,0.6-0.1,1.4-0.6,2s-1.5,1-3.2,1.2c0,0,0,0,0-0.1c0,0-0.7,0.3-1.1,0.8c-0.4,0.5-0.4,1.1,0.1,2.1c0,0,0.2,0.5,0.1,0.7
            s-0.4,0.4-1.4,0.4c0,0-0.7,0-0.8,0c0,0,0.1,0,0,0.2c-0.1,0.2-0.4,0.9-0.5,1s-0.3,0.5-0.3,0.7c-0.1,0.2,0,0.1,0,0.1s0.5,0,0.6-0.1
            c0.2,0,0.8-0.2,1-0.2c0,0,1.1-0.5,1.4-0.6c0,0,0.9-0.4,1.3-0.5c0.4-0.1,0.9-0.3,0.3,0.4c0,0-1.1,1.2-2.2,1.9c0,0-0.1,0.1,0-0.1
            c0,0-0.3,0.3-0.8,0.5c-0.5,0.2-1.2,0.2-1.2,0.2s-1,0.1-1.1,0.1c0,0,0.3,0,0.7,0.1c0.4,0.2,1.1,0.9,1.4,1.7c0,0,0.1,0.2,0,0.3
            c0,0,0,0.1-0.2,0c0,0-0.8-0.1-0.8-0.1c0,0-0.5,0-0.6,0c-0.1,0-0.2,0-0.1,0.1c0,0,0.8,0.6,0.9,0.8c0,0,0.5,0.5,0.6,0.6
            c0,0,0.3,0.4,1.4,0.3c1.2-0.2,1.2-0.2,1.2-0.2s-0.7,0.1-0.9,0.6s0,1.1,0,1.2c0,0-0.5,0-1.7,0.4c-1.2,0.4-1.8,0.8-1.3,1.1
            c0,0-1.2-0.5-1.7-0.6c0,0,1.6,1.1,2.5,1.5c0,0,0.9,0.4,0.8-0.1c0,0,0.1,0.5-0.3,0.9s-1.1,0.6-1.1,0.6s-0.8,0.3-1.5,0.3
            c-0.6,0.1-1.3,0.2-1.3,0.2c0,0.1,0.1,0.6,1.2,1.4c1.1,0.9,2.5,1.6,2.9,1.6c0,0-5.9,0.1-5.3-0.5c0,0-1,0.6,0.4,1.8
            c0,0,1.1,1,2.4,1.3c0,0-1.4-0.3-2.5,0.8c0,0,1.7,1,1.6,1.6c0,0,0,0.1-0.4,0.1c-0.4,0-1.1,0-1.5,0c-0.4,0-1.7-0.2-0.9-1
            c0,0-1.5,1.6-2.7,0.9c-1.2-0.7-1.2-2.4-1-3.1c0,0-0.5,2.3-0.2,3.5c0.4,1.3,0.5,1.5,1.2,2.4c0,0-0.6,0-1.3-0.6c0,0-0.2,1.6-0.2,2
            c0,0-0.1,1.6-0.4,1.7c0,0-0.5-0.2-0.9-1.8c0,0-0.5-2.3-0.6-2.4c-0.1-0.1,0-0.2-0.3-0.3s-1.1-0.7-1.3,1.4c0,0,0,1.9,0.2,2.9
            c0.2,1,0.6,3.3,1.3,4.3c0,0,0.4,0.6,0.3,1.2c0,0-1.2-0.9-1.7-1.7c-0.5-0.7-0.3-1-0.3-1s-0.2,0.5-0.8,0.7c0,0,0.8,3.2,0.6,3.7
            c0,0,0,0.2-0.6-0.8c-0.5-1-1.2-2.4-1.2-2.5c0,0-0.2-0.3-0.2-0.3l-1.3-0.8c0,0,1.3,3,2.1,4.6c0,0-0.5,0.1-2.1,1.2
            c-1.6,1-1.9,1.3-2,1.5c0,0,1.3,4.1,1.3,4.1c0,0.1,0.7,2,0.6,2.2c0,0-0.1-0.1-0.3-0.5s-0.5-1.4-1.2-1.1c0,0,0.3,0-0.9,1.4
            c0,0-0.9,1-0.7-0.1c0,0-0.1,0.5-1.2,1.2c-1.1,0.7-1.3,0.4-1.3,0.3c0,0,0,1.5,4.2,2.2c0,0-0.1,0.9-0.9,1.8c-0.9,0.9-1.9,1.8-2,1.9
            c-0.1,0.1-0.5,0.4-0.5,0.6c0.1,0.2,0.2,0.4,0.6,0.7s3,1.9,3.1,0.7c0,0,0.5,3,0.1,3.6c0,0-0.1,0.3-1.3-0.6l-1.3-1
            c0,0,0.2,0.1,0.4,1.8c0.2,1.7,0.5,2.8,0.8,2.4c0,0-0.4,0.5-1.3,0.7c-1,0.2-1.4,0.1-1.4,0c0,0,0.4,0.6,0.8,1.4s0.4,1.2,0.2,1.3
            c0,0,0.8-0.2,1.1-1.1c0,0,0.5,0.6,1.2,0.9c0.7,0.3,1,0.4,0.9-0.1c0,0,0.2,0.8-0.5,1c-0.7,0.2-1.5,0.1-1.7,0.2c0,0-0.6,0-0.3,0.4
            c0,0,0.8,1.9,1.2,2.8c0.3,1,0.9,2.5,0.9,3c0,0,0.3,1.6-0.8,0.4c-1.1-1.2-2.8-2.9-3-2.4c0,0,0.3-0.7,0.4-1.1c0.1-0.3,0-0.5-0.1-0.6
            c-0.1-0.1-0.4-0.1-0.6-0.1c-0.2,0-0.8,0.1-1.2-0.2c0,0-0.3-0.2-0.6-0.5c0,0,0.1-0.2,0.9-0.8s1-0.6,1.1-0.6c0.1,0-0.5-0.1-1.3-0.8
            c0,0-0.7-0.6,0.1-0.7c0,0-0.7,0-0.9,0.1s-0.2,0.1-0.6,0.2c-0.3,0.1-0.3,0.1-0.5,0.2s-0.5-0.3-0.5-0.3s-0.3-0.4-0.4-0.6
            c0,0-0.3-0.4-0.3-0.5c-0.1-0.1-0.6-0.7-2.5-0.4c0,0-1.9,0.2-4,1.3c-2.2,1.1-3.6,2.2-3.8,3.3c0,0,0.1,0,0.3,0.4
            c0.3,0.5,0.7,1.2,1,1.3c0,0-0.8,0-1.9-0.3c0,0-1.4-0.3-1.5-0.5c0,0,0.5-0.5,0.6-0.5c0.2,0,0.3,0.1,0.4,0.1c0,0,0.2,0,0.4,0.1
            c0,0-0.1,0-0.1-0.4c0-0.4,0-0.9-0.1-1c0,0-0.1-0.6-0.3-0.8c-0.2-0.2-0.4-0.3-1.1,0c0,0-0.3,0.2-0.9-0.1c-0.6-0.3-0.9-0.4-1.2,0.7
            c0,0-0.4,1-0.8,1.9c-0.4,0.8-0.5,1-0.9,1.2c0,0,2.1-0.1,2.2,0.6c0,0,0.2,0.5-0.9,1.6c-1.1,1.1-2.1,1.8-3.8,5.1
            c-1.7,3.3-2.5,6.6-2.8,8.1s-1.2,4.5,0,10.6c0,0,0.3,1.4,0.7,2.3c0,0,1,1.4,1.2,1.9c0.2,0.5,0,0,0,0s0.6,1.1,0.8,1.8
            c0,0,0.3,0.8,0.3,0.9c0,0-0.1-0.6-0.5-0.6c0,0-0.3,0-0.5-0.1c-0.2-0.1-0.4-0.2-0.4-0.2c0,0,0.3,0.2,0.4,0.5
            c0.1,0.2,0.3,0.6,0.5,1.1c0.2,0.5,0.2,0.8,0.2,0.9c0,0,0-0.4,0.2-0.8c0,0,0,1.4,0.1,1.8c0,0.4,0.2,2.6,0.5,3.9s0.8,4.4,0.9,4.9
            s0.7,3.7,0.8,4.2s0.9,5.5,0.9,7.4c0,1.9-0.1,4.3-0.9,7.9c0,0-1.6,8-1.7,8.2s-1.1,5.6-1,8.9c0,0,0,1.7,0.1,2.7c0,0,0.1,2.3-1.9,3.3
            s-6,1.4-6.6,4.4c0,0-4.8-1.5-5.8-1.8c-1-0.4-5.2-2-5.2-2l-0.6,0.9l-1.1,0c0,0-0.3,0.6,0.9,2.7c0,0-1.8,0.1-4.6,4.8
            c0,0-1.8-0.9-3.9-3.2c-2.1-2.3-3.3-3.8-3.5-4.3c0,0-0.2-0.4-1.1-0.7c-0.9-0.3-1.7-0.7-1.8-0.8c0,0,0.3-2.8,0.2-4.5l-0.1-0.6
            c0,0-1.3-0.7-1.4-0.7c0,0-1.7-0.7-1.9-1.1c-0.3-0.4,0,0,0,0s-0.7-0.7-1.2-1.5c0,0-1-1.4-2.6-2.4c-1.6-1-3.5-2.3-5.4-2
            c0,0-0.3,0-1.4-0.2c-1.1-0.1-2.9-0.6-4.7-0.6s-2.4,0.7-2.7,1.3c0,0-2.8,0.6-2.3,3c0,0-2-0.5-2.6,1.2c0,0-0.5,0.7-3.1,1.8
            c0,0-5.6,2.4-5.7,2.4c-0.1,0-2.6,1.2-3.3,2c0,0-0.9,0.5-2.9,1.5c0,0-2.2,1-3,2.4l-6.2-1.5c0,0,1.1-8.3,0.9-9.6c0,0,0.2-9.7-3.9-6.5
            c0,0-0.4-0.5,0.7-3.2c1.1-2.7,1.8-3.9,1.8-3.9s0.8-0.9,0.1-2.9c0,0-0.8-2.5-0.7-4c0,0,3.8,1.6,7.8-1.6c4-3.1,4.9-3,7.2-2.1
            c0,0,2.5,1.8,2.8-2c0.2-3.8,0-0.1,0-0.1s0-2.6-1-7.2c0,0,5.9-8.2,6.2-8.6c0.3-0.4,1.9-2.1,2.9-2.3c0,0-0.2-2.2-1-2.7
            c-0.8-0.5,0.1-0.2-3-2.3c0,0-1.8-1.4-1.9-1.6c-0.1-0.2,0.7-5.5,1.2-6.5c0,0,1.8-1.2,1.8-5.5c0-4.3,0.2-4.2,0.4-4.6
            c0,0-0.3-0.1,1.6,0c0,0,3.3,0.9,7.2-5.6c0,0,2-3.3-2.4-5c-4.4-1.7-5.5-1.8-6.2-3.5c0,0-0.3-1.7-0.2-4.1s-0.4-3-0.4-3
            s-0.3-0.5-3.4-1.6l-3.1-1.3l-1.2-0.6C542.1,470.2,541.5,469.9,541.3,469.9z"/>
        <text class="map_text"; transform="matrix(1 0 0 1 685.2116 427.3542)">Tohoku</text>
	</symbol>
		
	<symbol id="kanto" viewBox="0 0 850.5 935.7">
            <path id="XMLID_4_" d="M524.3,684.1l-1.2,0c0,0-0.4-1.8-2-0.6c0,0-1.3-0.2-2.7-1.7c0,0-0.5-1.2-1.7-2.3c0,0-1-0.8-0.8-2.2
            c0,0-0.1,0,0.7-0.6c0,0,1.2-0.6,1-2.8c0,0,0.1-3-0.6-4.2c-0.7-1.2-1.6-2-4.1-1.5c0,0-0.1-1.1,1.5-2.2c0,0,1.8-1.1,5.2-2.7
            s3.5-4.3,3.5-6.3c0-2,0.3-3.5,0.3-3.5s0.1-2.7-0.4-2.8c-0.4-0.1-0.3-0.3-1.1,0.2c0,0-3.7-2.4-6.5-8c0,0,0-1.4-0.7-2.4
            c0,0-2.1-0.7-2.3-0.6c-0.2,0.1-1.4,0.9-3.4-0.1c0,0-1.8-1-2.1-1.2c-0.3-0.2-1.4-1-3.4-1.7c0,0,0.1-1.1-1-3.1
            c-1.1-2.1-1.3-2.3-1.5-2.4s-1.5-1-1.5-1s-0.9-0.3-0.7-1.9c0,0,0.2-2.4-0.4-3.2c0,0-0.3-1-2.1-3.1c0,0,1.8-0.2,2-1.1
            c0.3-0.8,0.3-1.3-0.7-3.2c-1-1.9-1.3-2.7-1.1-3.1c0,0-0.1,0,0.6-0.5c0.8-0.5,1.7-2.3,1.8-4.2s-0.1-3.4-0.8-4.5
            c-0.6-1.1-1.9-2-3.8-1.2s-7.4,1.2-7.8,0.4l0.2-4.1c0,0,0.3-5,1.3-5.6c1-0.6,1.6-0.5,4.1-4.6c0,0,0.9-1.2,1.1-1.4
            c0,0,0.9,0.5,4.1-0.7c3.2-1.1,2.3-0.9,3.9-1.7c0,0,0.1-0.2,2.2-0.2c0,0,1.4,0,2.3-1.1s1.2-2,1.9-3c0,0,1.2,0.1,3.3-1.4
            c2.1-1.6,1.4-1.9,1.1-2.9c0,0,1-0.8,1.5-1c0,0-0.6-0.2-0.7-0.8l2.2,0.4c0,0,0.2-0.9-0.4-2.8c0,0-0.5-1.6-0.4-1.9
            c0,0,0.1-0.1,0.9-0.1s2.2-0.2,3.3-1.5c0,0,0.5-0.7,1-1.7s0.6-1.3,0.6-1.3s1,1.2,1.5,1.7c0.4,0.5,1.1,1.3,1.3,1.2c0,0,0,0.6,1,1.5
            c1,0.9,1.7,1.4,1.7,1.4s0,1.3,1.3,1.1l6,1.5l2.4,0.3l0.2-0.2l0.3-0.1l0.1-0.5c0,0,0-0.6,1.1-1.2c1.1-0.7,3.7-1.9,3.7-1.9l0.4-0.3
            c0,0,0.8-0.7,1.7-1.2s6.9-3,6.9-3l1.6-0.8c0,0,2-0.8,2.8-2.2c0,0,3.3,1.1,2.7-2.7l1.2-0.5c0,0,0.5-0.1,0.9-0.9c0,0,0.2-0.4,2.4-0.1
            s3.6,0.6,3.6,0.6l0.8,0.1c0,0,1-0.1,1.8,0.2c0.7,0.3,2.5,1.2,3.9,2.4c0,0,0.4,0.4,1.3,1.6c0.9,1.2,2.3,2,2.3,2l1.5,0.7l-0.1,3
            c0,0-0.6,1,0.4,2.1c0,0-0.1,0.7-0.1,0.9c0,0,2,0.2,2.2,0.3c0.2,0.1,0.8,0.3,0.9,0.4c0,0,4.7,6.8,8.7,8.2c0,0,0,0.1,0,0.2l1,0l0-1.1
            l0.9-0.6c0,0,0.3,0.5,0.2,0.9c0,0,2.4-3.7,3-4c0,0,2.9-0.7,2.1-3l6,2.1c0,0,3.2,1,3.5,1c0,0-0.1,0.6-1.5,2.5
            c-1.4,1.9-1.8,2.5-1.8,4.9s-2,8-2.9,9.8c-0.9,1.8-2.1,3.7-2.2,4.3c-0.2,0.5-0.7,1.8-0.3,5.2c0.4,3.4-1,4.2-2.1,5.5
            s-1.9,5.4,0.2,11.6c0,0,0.7,3.3,4.5,10.6c3.8,7.3,8.3,12.5,8.7,12.6s1.9,1.8,1.9,1.8s0.1,0.7,0,1.2s-0.2,0.8-0.1,1.3
            c0,0-0.3-1.4-4.7-0.9c-4.4,0.5-6.2,1.5-6.2,1.5s-6.8,3.6-11,11.6c0,0-3.2,5.4-1.1,11.1c0,0,1.9,5-2.5,8.5c0,0-1.3,1.2-1.9,2
            c0,0,0-0.2-0.1-0.4c0,0-2.8,0.8-4.5,1.3s-3,1-3,1s-3.3,1.3-4.7,2.8c0,0-0.6,0.5-1.6,1.7c0,0-0.6,0.7-1.1,1c0,0-1.4,1.1-1.5,1.4
            c0,0-0.6,0.5-0.9,2.9c0,0-0.1,2.2-1.4,2.7c0,0-1.8,1-4.1-0.2s-3.2-3.8-4.8-3.6l5.7-1.1c0,0,0.1-2.1-3-2.9c0,0,2.2-1,0.5-4.6
            c0,0-0.9-2.2-0.7-3.3c0,0,0-0.1,0.8-1.5c0.8-1.4,2.1-3,1.4-4.5s-3.8-2.6-3.8-2.6s3.7-3.3,3.5-2.3c0,0,0.5-0.7-0.5-1.1
            c0,0,0-0.4,2,0.2c0,0,0.5,0.2,0.7,0.2c0,0-0.2-0.4-0.1-0.7c0,0,0.7,0.3,0.9,0.3c0,0-1.3-1.2,0.2-3.6c0,0,0.9-1.4,2.1-1.5l-0.2,0.1
            c0,0,0.3-0.3,0.5,0.3c0,0,0.1-1.3,0-1.6l0.8-0.4l0.7,1.1l0.4-0.5c0,0,0.1-0.1,0.3-0.1c0.2,0,0.6-0.2,0.6-0.2s0-1,0.4-1
            c0,0,0.4-0.1,0.7-0.6l-0.8-0.3c0,0,0.4-0.5,0.7-0.5c0,0,0.4-0.1,0.4-0.1c0,0,0.3-1.3,0.3-1.3c0-0.1,0.3-0.8,0.3-0.8
            c0,0,0.3,0.2,0.4,0.3c0,0,0.2,0.2,0.4,0.2c0,0-0.5-0.2-0.4-0.8c0,0,0.4,0.2,0.8,0.3c0.5,0.1,0.8,0.2,0.8,0.2s-0.1-0.3-0.3-0.3
            c0,0-0.2,0-0.3-0.1s-0.2-0.1-0.2-0.1s0.3-0.3,0.4-0.5c0.1-0.3-0.1-0.6-0.1-0.6l1.6,0c0,0-0.8-0.3-1.9-0.2l0-1c0,0,0.4,0.1,0.5,0.1
            c0.1,0.1,0.1,0,0.3,0.3c0,0,0.1,0.1,0.3,0.2c0.2,0.1,0.3,0.1,0.3,0.1s-0.1-0.8-0.2-1.2c-0.1-0.4-0.2-0.7-0.3-0.7
            c0,0-0.6,0.1-0.8,0.3c0,0-1.6-1.7-2-2.1s-1.3-1.3-3-1.4c0,0,0.5-0.4,0.8-0.2c0,0-0.2-0.3-0.5-0.4c0,0-0.1,0-0.2-0.1
            c0,0-0.1-0.1,0.1-0.4c0,0-1.8-0.3-2.6,0.5c0,0-0.6,0.5,0,1.6c0,0-1,0.7-1.4,1c-0.4,0.2-1.1,0.2-1.1,0.2s-2.2,0.6-2.3,0.6
            c0,0-0.5-0.7-0.6-0.8s-0.5-0.8-0.6-0.9c0,0-0.7,0.7-1.9,1.3l0.7,0.7c0,0-0.8-0.1-1.1-0.6c0,0-0.3,0.9,0.3,2.5
            c0.6,1.6,0.6,1.7,0.6,1.7s0,1.9-0.4,2.4c-0.3,0.5-1.3,2.2-4.3,3l0.4,0.6c0,0-0.7,0.1-0.8,0.1c-0.1,0.1-0.3,0.2-0.5,0.4
            c0,0,0.3,0.4,0.3,1.3c0,0,0.1,1.1,0.2,1.3c0,0-2-0.4-2.2-0.3c0,0-1.2,0-0.5,1c0,0,1,2.3,1,2.6c0,0,0.8,2.3,0.7,2.8
            c0,0,0,0.6-0.3,0.6c0,0,0.3,0.1,0.3-0.5c0,0,0-0.1,0.2-0.1c0,0-0.1,0,0,0.1c0.1,0.1,1.5,1.2,1.8,1.4c0,0,1.7,1.1,1.8,1.2
            c0.1,0-0.2,0.7-0.2,0.7c0,0-0.5,1-0.8,1.3c-0.3,0.3-0.3,0-0.3,0s-0.1,0-1.1,1.4c0,0-0.9,1.4-1.3,2.3c0,0-0.8,1.6,0.5,1.6
            c0,0-1.4,0-1.8,0.1c0,0-1.1,0.1-0.7,0.4c0,0-0.8-0.3-0.9-1.1c0,0-0.1-0.6,0.7-0.9c0,0-1,0.3-0.8-1.4c0,0,0.1-0.9,0.4-1.4
            c0,0,0.1-0.3,0.2,0c0,0-0.5-1.8-1.2-2.6c-0.7-0.8-1.9-2.3-4.8-2.6c0,0-0.7,0-0.8,0c0,0-0.6-0.1-1.1-0.3c0,0-2.6-1-3.3-0.8
            c0,0-0.5-0.2-3.6,0.9c0,0-2.3,0.9-3.3,1c-1,0.1-1.8,0.2-3.6,2.4c0,0-1.1,1.3-1.8,3.1c0,0-0.8,1.8-0.3,2.9
            C523.3,683.5,523.5,684.1,524.3,684.1z"/>
            <text class="map_text"; transform="matrix(1 0 0 1 620.4197 639.5438)">Kanto</text>
	</symbol>
	
	<symbol id="hokuriku_koushinetu" viewBox="0 0 850.5 935.7">
		<path id="XMLID_6_" d="M492.9,502.9c-0.4,3.1-3,7.3-4.4,9.7c-1.7,3.1-6.8,3.4-8.7,5.3c-0.8,0.8-5.9,2.1-4.8-0.1
			c0.4-0.9,2-0.9,2.8-1.1c1.7-0.5,0.5-3.5,0.9-4.5c0.1-0.4,5.4-7,0.3-5.6c-0.2,0.1-3.7,3.9-3.3,1.3c0.8-4.9,1-6.7,3.9-11.3
			c1-1.7,6.9-6.3,6.7-7.6c-0.4-2.1,3.7-3.5,3.6-2.8c-0.3,3.6-0.7,6.7-2.1,10C484,505,493.2,500.9,492.9,502.9z"/>
		<path id="XMLID_5_" d="M340.6,662.4c0,0,0.4,0.8,1.2,0.1c0,0,0.1,0.1-0.2-1.4l0.1-0.2c0,0,0.3,0.2,0.7,0.2c0.4,0,0.4,0.2,0.4,0.2
			s0.1,0.1-0.3,1.2c0,0-0.4,0.7-0.5,1.3c-0.1,0.4,0.1,0.7,0.5,0.7c0.9,0,0.8,0,0.8,0s0.8-0.2,1,0.3c0,0,0,0.1,0.2,0
			c0.2-0.1,0.8-0.4,1.7-1c1.5-1.1,3.4-2.4,3.4-2.4s0.4,1,0.5,1.3c0,0-0.2,0-0.5,0.1c-0.4,0.2-1,0.6-1.8,1.3c0,0-1.4,1.2-1.8,0.7
			c0,0,1,2.2,4.7,0.5c0,0,1-0.4,1.9-1c0.6-0.4,1.3-1,1.6-1.6c0-0.1,0.1-0.2,0-0.3c-0.1-0.2-0.3-0.4-0.6-0.2
			c-0.4,0.3-0.6,0.9-0.8,0.7c-0.2-0.2-0.4-0.6-0.6-1.1c-0.3-0.4-0.5-0.7-1.1-0.4c0,0,1.8-1,4.1-0.4c0,0,1.4,0.3,1.9,0.9
			c0,0,0.2,0.1,0.6,0.1c0.2,0,0.6,0,0.6-0.1c0-0.1-0.1-0.2-0.3-0.4c0,0-0.2-0.4-0.6-0.8c-0.3-0.3-0.6-0.6-0.7-0.7c0,0,3,1.8,2.2-1.5
			c0,0-0.7-2.2-1.5-2.7l3.5,1.2c0,0,1.1,0.4,1-0.3c0,0,0.6,1.8,2.1,0.1c0,0,0.5-0.4,0.2-0.8c0,0,1.9,1.5,1.1-1.8
			c-0.8-3.3-0.6-2.4-0.6-2.4s-1.5-0.6,0.6-2c2.1-1.4,2.4-1.7,2.4-1.7s0.6,3.4,1,3.7c0,0-0.8,3.1,0.5,2.7c0,0,1,0.6,1.7-3.1
			c0,0,0.9-1.8-0.8-4.7l-1.8-3.7c0,0-0.9-1.4-1-1.5s-0.5-0.9-1.5-3.5c-1-2.5-1.5-3.1-1.5-3.1s0-1.6,0.9-3.3
			c0.9-1.7,4.1-6.6,7.4-10.6c0,0-0.1-3.6-0.5-3.2c0,0,0.9-0.9,3.4-1.4c0,0,1.7-0.7,2-0.9c0,0,1-0.5,1.8-1.3c0,0,0.3-1.2,2.1-2.7
			s4.2-3.1,4.7-3.7c0,0,4.5-4.1,8.3-10.1c0,0,4.9-7.8,6.9-13c2-5.2,3.8-10.7,1.7-14.1c0,0,0-0.6-0.4-0.5c0,0-0.2-2.5-0.5-4.1
			c-0.3-1.6-0.6-3.2-0.6-3.2s-0.2-1-0.5-1.3c0,0,0.5-0.3-1.4,0.1c0,0-1.4,0.3,0.1-4c0,0,0.8-2.4,1-2.7l0.1-0.1c0,0,0.1,0.1,0.5-1.4
			c0.4-1.5,1.2-4.4,1.8-5.1c0.6-0.7,0.5-0.7,1.3-1.1c0.8-0.4,2.9-1.7,3-1.8c0,0,1.1-0.6,1.5-0.6s0.6,0.1,1.7,0.3
			c0,0,1.5,0.7,3.2-1.1c0,0,3.5-2.5,4-2.8c0.6-0.4,3.5-2.1,4.4-2.3c0.9-0.2,0.9-0.2,1.5-0.2c0.6,0,1.1,0.1,3-0.5
			c1.9-0.5,2.7-0.8,2.8-0.8c0,0,1.1-0.3,1.7-0.2c0,0,1,0.5,1.4,2.3s0.3,2.6,0.1,2.7s-0.5,0.7-2.9,0.3c0,0-2.8-0.7-2.6,4.1
			c0,0,0.2,1.8,0.3,2.4c0,0,1.4,1.4-0.4,2c0,0-0.5,0.2-3.4,0.7c0,0-2.4,0.3-3.4,1.2c0,0-0.3,0.2-0.7,1.1c-0.5,0.9-1.2,2.1-1.2,2.1
			s-0.8,1.3-1,1.5c-0.2,0.2-0.6,0.7-1,0.9s-1.1,0.1-1.5-0.1c-0.4-0.2-1.2-0.6-1.2-0.6s-0.8-0.5-0.8-0.5c0,0-0.7-0.5-0.8-0.3
			c0,0,0.4-0.5,0.5-0.9c0,0-0.7,0.4-1.3,0.2c0,0,0.3,0.2,0.3,0.3c0,0-0.5,0.4-1,0c0,0-0.2,0.3,0,0.6c0,0,0.4-0.5,0.6,0.2
			c0,0,0.1,0.4,0.1,0.5c0,0-0.8,0.8-1.7,2.5c0,0-0.6,0.8-1.1,2.8c0,0-0.3,1.2-0.2,0.3c0,0-0.2,1.1-0.2,1.5c0.1,0.5,0.1,1,1.3,0.6
			c1.2-0.4,1.4-0.5,2.2-0.5c0,0,1,1.9,1.3,2.1c0.3,0.2,1.5,1,2.2-0.9c0,0,0.7-2.1,1.1-2.5c0.5-0.4,0.9-0.3,1.3-0.2
			c0,0-0.1,0.1,0,1.4c0.1,1.3,0.4,6,0.4,6s-0.3,0.1-0.1,0.8c0,0-0.6,1.9-0.9,2.2s-2,2.3-1.7,4.4c0.2,2.1,2.1,3.9,3.2,4.7
			c1.2,0.8,5.6,3.9,11.5,2.1c5.9-1.8,6.2-7.1,6.2-7.4s-0.1-4.3,5-4.9c0,0,3.1-0.3,3.7-0.6c0,0,0.9,0,1.3,0c0,0,1.2-1.2,1.8-1.3
			s10.1-2.8,16.2-7.4c0,0,4-2.5,4.6-3.2c0,0,0.9-0.9,3.5-0.7c2.6,0.2,5.2-0.6,9.5-4.6s5.6-5.6,5.6-5.6l3-2.6c0,0,3.4-3.5,4.1-4.7
			c0,0,5.2-7.6,5.3-7.7c0.1-0.1,2.2-2.7,3.4-7.8c0,0,1.3-8,6.1-11.3c0,0,3.4-2.1,4.2-2.6s1.9-1.3,2.4-1.7c0.5-0.4,1.8-1.2,4.4-2
			c2.7-0.9,3.3-1.1,3.3-1.1s1.7-0.4,5.7-4.7c4-4.3,6.5-7.9,6.6-12.3c0.1-4.5,0.4-9,1.4-11.3c1-2.3,2.9-4.8,3.7-7.3l6.8,2.8
			c0,0,0,2.9,0,3.8c0,0.9,0.1,2.8,1.1,4s3.1,2.1,3.3,2.2c0.2,0.1,2.9,1,2.9,1s2.1,0.8,2,1.3c0,0.5-0.1,1.1-1.9,3.2
			c-1.7,2.1-2.6,2.2-4.5,2s-3.1,1-3.1,3.9c0,2.8-0.1,3.7-0.1,3.7s-0.1,2.5-1.1,3.2c-1,0.7-1.7,6.6-1.7,7.5s-0.1,1.4,0.4,2
			c0.5,0.6,0.9,1,1.4,1.3c0.5,0.4,2.7,2,2.9,2.1c0.2,0.1,0.6,0.6,0.6,0.6s-0.9,0.7-1.5,1.4s-1.2,1.5-1.9,2.4s-2.3,3.2-2.3,3.2
			l-2.1,2.9l-0.6,0.9c0,0-0.5,0.7-0.5,1c0,0.3,0,0.4,0.1,1s0.7,4.2,0.8,5c0.1,0.8,0.1,1.4,0.1,1.4s-2.2-1.3-4.3-0.4
			s-1.8,0.6-4.6,2.8c-2.9,2.2-4.7,1.6-5.7,1.4c-1-0.2-1.6-0.4-2.7,0.5c-1,1-0.4,3.7-0.2,4.3c0.1,0.6,0.7,2.6,0.7,2.6
			s-2.7,5.6-2.7,6.7c0,0-1.4,4.7,3.5,4.3c0,0,0.3,2,0.2,4.5c-0.1,2.5-0.3,4.7-0.3,4.7l-0.3,2.9c0,0-0.7-0.6-0.9-0.8
			c-0.2-0.3-0.4-0.6-0.7-0.7c0,0-0.1-0.5-0.4-0.8l-1-1.2c0,0-1-1.2-1.2-1.4s-0.9-0.9-1.5-1c0,0-0.6,0-0.7,0c0,0-0.8,0.7-1,1.2
			c0,0-0.3,0.5-0.8,1.5c0,0-0.4,1-0.5,1.1c0,0-0.5,1-1.8,1.1s-2.1,0.1-2.8,1.1c-0.8,1,0.1,3.3,0.1,3.3l0.3,1c0,0-1.4,0.5-2.7,2
			c0,0-1,1-0.4,2.2c0,0-1.2,0.8-1.7,0.9c0,0-1.1-0.8-2.4,1.8L504,584c0,0-0.2,0.1-1.7,0.2c0,0-1.2,0.1-1.4,0.2s-1.9,0.9-2,1
			c-0.2,0.1-3.6,1.4-4.6,1.5c0,0-1.4-0.8-3.1,1.4c0,0-1,1.4-1.6,2.3c0,0-1.1,1.7-2.1,2.2c-1,0.6-1.5,1.4-2,2.6
			c-0.5,1.2-0.7,3.8-0.7,4.4s-0.2,4.4-0.2,4.4s-0.5,2.3,2.4,2.8c0,0,2.4,0.5,5.5-0.1c3.1-0.6,2.5-0.5,2.5-0.5l0.4-0.1
			c0,0,0.6-0.4,1,0.2s0.7,1.9,0.4,3.9c0,0-0.2,1.3-0.7,1.8c0,0-0.3,0.2-0.5,0.3s-1.5,1-1.1,3c0,0,0.2,1.2,1.4,3.2l0.4,0.9
			c0,0-1.1,0.2-1.2,0.1c0,0,0.7,0.2,0.5,1l-2-1c0,0-0.8,1,0.9,3.1s1.7,2.3,1.7,2.3s0.6,0.7,0.5,2.5c-0.1,1.8,0.1,2.3,0.6,3.2
			c0,0,1.8,1.6,3.1,2.2c0,0,0,1.5,0.6,2.3l0.3,1c0,0,0.9,1.9,0.9,2.1c0,0,1.2,0.4,1.6,0.5c0.4,0.2,3.5,2.1,3.7,2.2
			c0.2,0.1,3.1,1.9,5.7,0.6c0,0,0.2,0.3,0.1,0.9c0,0.6,1,2.4,1,2.4s1.8,2.8,2.7,3.9c0.9,1.1,3.1,3.4,4.3,3.8c0,0-0.5,2.9-0.4,4.4
			c0,0,0,1.7-0.3,2.2c-0.3,0.4-0.8,1.2-2.1,1.9c-1.3,0.7-4.3,2-4.7,2.4c0,0-3.3,1.7-3,4.7c0,0-0.3,0-1.8-0.1c0,0-0.1-0.3-5.9,1.5
			c0,0-0.8,0.2-1,0.2c0,0-0.7-1.2-2.9-1.7l-1.6-0.4c0,0-0.3-2.2-1.7-2.6s-2.6,1.1-3.3,2.8c-0.7,1.7-1.7,4-1.7,5.4
			c0,0-0.4,1.1,0.3,2.4c0.6,1.3,0.9,3.3,0.5,4c-0.4,0.7-0.7,0.9-2.1,1.2c0,0-1.1,0.1-1.4,0.1c-0.3,0-0.7-0.3-1-1
			c-0.2-0.7-0.4-1.4-0.7-2.5c-0.3-1.2-0.5-2.2-0.8-3.1c-0.3-0.9-1.2-2.5-3.2-2.2c0,0-0.9,0.2-1,0.3c0,0-0.9,0.3-1,0.3
			c-0.1,0,0.3-1.4-0.9-2.5c0,0,0.4-3.6-0.1-5.2c0,0,0.8-2.6-0.1-8.6c0,0-0.1-4.8-2.7-3.7c0,0-1.5,1.3-1.6,1.6
			c-0.2,0.3-1.2,1.9-2.5,7c0,0-0.7,1.1-0.5,2.7c0.2,1.6,0.6,4.2,0.6,5c0,0,0.1,0.9-0.5,1.2c0,0-5.4,3.7-6.8,4.3c0,0-0.7,0-2.2,0.9
			c-1.6,1-3,1.8-3,1.8s0.6-0.2,1.1,0.4l-1.8,1.3l0,0.1l-0.3,0.1c0,0-1.1,0.2-1.2,0.3s-1.3,0.2-1.3,0.2s-1.1,0.1-1.4,0.3
			c0,0-1.9-1.7-4.2-1.1c0,0-1.3,0.2-3.1,0.9c0,0-1.5,0.5-1.9,0.3c0,0-0.2-0.2-0.2-1.3c0-1-0.1-2.1-0.2-2.5s0.2-1.8,0.6-2.6
			c0.3-0.8,0.4-1.9,0.3-2.6c0,0,3.2-0.9,1-4.8c0,0,2.3-0.7,1-3.4c-1.3-2.7-3.8-5.2-3.8-5.2s-0.7-0.7-1.3-0.7c-0.6,0-0.9-1.1,0-1.8
			c0,0,1.1-1-0.3-3.5c0,0-1.5-2.3-2.5-3.2c0,0-0.7-0.8-2-1.5s-5.1-2.9-5.1-2.9s1-2.9,1.6-3.6c0,0,0.4-0.4,1-0.5c0,0,1.1,0,1.9,0.1
			c0,0,2.5,0.6,3.1-2.1c0,0,0.7-1,1.8-2.2s2.6-3,3-3.6c0.5-0.6,1.4-2,1.5-2.4s1.1-2.5-0.9-3.4c0,0-1.7-1-1.6-1.4
			c0-0.4-0.2-0.1,1.1-2.3c0,0,1.2-1.7-0.4-3.4c0,0,1.4-2.5,2.7-3.9s1.7-2.9,0.4-5.2c-1.3-2.2,0-0.1,0-0.1s-1.8-2.3-2.1-2.7
			c-0.3-0.4-1.5-1.7-1.6-1.7c0,0-1,0.5-2.4-0.1c0,0-1-0.8-3.5-0.5c0,0-1.3,0.1-2-0.5c0,0-0.1-0.2-0.4-1.1c-0.3-0.9-1.8-1.3-3.2-0.1
			c-1.5,1.2-1.3,1.1-1.3,1.1s-0.7-1.4-1.1-1.6s-1.1-0.9-2.8,0.1c-1.7,1-1.7,1-1.7,1s-1.9-1.2-3.9,0c0,0-0.6,0.2-1.5,1.9
			c0,0-0.8,1.4-0.9,1.4c-0.1,0-1.3-0.2-2.3,2.2c-1,2.4-1.3,3.1-1.6,3.6c-0.3,0.4-0.7,1-1.1,1.1c0,0-0.4-2.6-0.5-2.7
			c0,0-0.4-1.4-0.7-1.5c0,0-1.3-1.2-3.2-0.5l-0.1-0.2l-2,1c0,0-0.2-0.5,0-0.9c0,0-1.1,1.3-2,2.1l-2.4,2.5c0,0,0.4,1.1,1.1,2.1
			c0.7,1,0.9,1.3,0.9,1.3s0.4,0.5,0,1.2s-1.1,1.7-1.3,2c-0.2,0.3-1.4,2.2-2.1,4.1c0,0-0.4,1.3-0.3,1.9s-0.1,2.1-0.1,2.3
			s-0.4,1.9-0.4,2.4s-0.2,1.2,0,2.4c0.1,1.1,0.7,2.4,2.1,2.8c0,0,1.7,2.4,2,2.8c0.3,0.4,0.5,0.9,0.1,1.3s-1.1,1.5-1,2.1
			c0,0-1.3,1.4-5.1,2.1c0,0-1.7-1.8-4.3-0.8c-2.5,1-3.9,1.5-4.6,2.1c0,0-3.8-2.6-7.8-0.9l0.3,0.7c0,0-0.6,0.5-0.7,0.9
			c0,0-0.1-0.2-0.1-0.5c0,0-1.5,3.8-4.3,6.1c0,0,0-0.6-0.1-0.6c0-0.1-0.1-0.6-1-1.2s-2.8-1.2-3.8-0.5c-1,0.7-0.9,1.6-0.8,2.3
			c0.1,0.8,0.3,2.9,0.4,3.6s0.2,1.6,0.2,1.6l-0.6-0.2l-0.6,0.9l-1-0.5l-0.2,0.5l0.1,0.1l-0.2,1.8c0,0-3.1-0.5-4.6,2.6
			c0,0-1.1-2.1-2.3-1.7c0,0-0.7,0.2-0.9,0.5c-0.2,0.4-1.4,3.4-1.4,3.6c-0.1,0.2-0.7,1.6-0.8,1.8s-0.8,1.6-0.8,1.6s-1.7-1.8-3.7,0.8
			c0,0-1.2,1.7-1.5,2.2c0,0-0.8-0.1-2.2,0.4c0,0-0.7,0.3-1.3-0.1c-0.6-0.3-1.2-0.8-2.7-1c-1.5-0.2-1.8-0.2-2.5-0.6
			c0,0-0.5-0.2-1.7-0.1c0,0,0.3-1.3-0.8-2.4c0,0-0.3-0.2-0.3-0.2c0,0-1-0.6-1.9-2.2C340.5,664.2,340.5,663,340.6,662.4z"/>
	       <text class="map_text"; transform="matrix(1 0 0 1 274.0562 485.9771)">Hokuriku・Koshinetu</text>
		</symbol>
		
	<symbol id="tokai" viewBox="0 0 850.5 935.7">
		<path id="XMLID_3_" d="M368.3,771.1c0,0-0.3-0.1-0.5,0c0,0-1.1-0.4-3.3-2.4c-2.2-2-2.8-3.3-2.8-3.8c0,0-0.1-0.2,0.2-0.5
		c0.1-0.1,0.7-0.4,0.3-1.6c0,0,0.2,0,0.3,0c0,0,0.5-0.7,0-1.2c0,0,0.4,0,0.8-0.5c0,0,0.9,0.3,1.5-0.3c0,0,0.2-0.2,0.4-0.5
		s1.3-1.8,1.5-2c0,0,1.4,0.6,2.2-0.3c0,0,0.6-0.6,0.4-1.5c0,0-0.6-1.5-0.8-1.7l0.5-0.5c0,0,1.4,0.5,1.8,0.5c0,0,1,0.1,2.2-0.3
		l0.2-0.4c0,0,0.3-0.5,0.2-1.2c-0.1-0.7-0.4-2.2-0.4-2.4l0.8-1.3c0,0-0.6-0.3-0.6-3.1c0-2.8,0.6-6.8,0.6-6.8s0.5-2.8,0.6-3.1
		c0.1-0.3,0.5-0.9-0.9-2.6c-1.4-1.7-1.7-2.4-1.7-2.4s0.3-1,1.5-1.3c1.2-0.3,1.7-0.7,1.7-0.7s0.7-0.1,1.1-0.4c0.5-0.3,3-1.7,3.5-2.7
		c0.5-1,0-1.7-0.7-1.9c0,0-0.6-1.5-2.5-1.7l-0.5-1.7c0,0-0.1-0.8-1-0.9l-0.5-0.1c0,0-1,0.9-1,1c-0.1,0-0.3,0.3-0.7,0.3
		c0,0-0.7-0.2-1.1-3.4c-0.4-3.2-0.3-6-0.3-6s0-0.6-0.3-1.3l0.1-0.3l-0.5-0.4l-1.1-1.8c0,0,4.8-2.5,4.5-5.8c0,0,1.4,0.4,1.9,0.2
		c0,0,2.2,2.3,4,1.5c0,0,0.7-0.3,1-0.6s1.9-0.8,1.9-0.8s2.9-0.7,3.6-1.9c0,0,0.8-1.2,1.1-2c0.4-0.8,1-2.4,1.2-2.8
		c0.1-0.4,1.5-4.5,1.7-6.2c0.3-1.6,0.2-3-0.2-3.6c0,0-0.1-1.7-1.6-4.1c0,0-0.4-1.6-0.3-2.3c0,0,0-1.9,0.2-3.4
		c0.1-1.4,0.5-4.8,0.5-4.8s0.3-3.3,0.2-4.1c-0.1-0.7-0.1-2.1-1-2.7c0,0-0.6-0.4-1-2.2c0,0-0.3-1.3-0.5-1.6c-0.2-0.4-0.6-1.4-2-1.6
		c0,0-0.2-1-0.6-1.8c-0.4-0.8-1-1.8-1.3-2.3c-0.3-0.5-1-1.5-1-1.6c0-0.1,0.2-1.2,0.2-1.2s2.5-3.2,3-5c0,0,1.9-0.7,4.1,0.4
		c0,0,1.9,0.9,2.2,1.2l1.1-1.7l0.2-0.1c0,0,0.4,0.3,0.1,0.9c0,0,0.9-0.7,3.7-1.7c0,0,0.7-0.4,1.7-0.1c0,0,0.3,0,0.6,0.5
		s1.3,0.5,1.3,0.5s1.2,0.1,4.2-1.2c3.1-1.3,3.1-2.7,3.1-2.7s-0.1-0.3,0.8-1.6c0.9-1.3,0.4-2.8-0.1-3.5c-0.5-0.7-1.5-2.1-1.6-2.1
		c0,0-0.7-0.9-0.7-0.9l-1,0.5l0.2-1.1c0,0-1.1,0-0.8-2.5c0,0,0.2-1.8,0.5-2.8c0.2-1.1,0.2-1.7,0.2-1.7s-0.2-1,0.1-1.9
		c0.3-0.9,0.8-2.2,1.5-3.2c0.7-1,1.3-1.9,1.3-1.9s1.5-1.9,0.6-3.7c0,0-0.3-0.8-0.6-1.1l-0.8-1.3c0,0,2.6-2.4,2.9-2.8
		c0,0,0.8,0.5,1.8,0c0,0,0.6-0.2,0.9,0c0,0,0.5,2.3,0.7,3.6l1,0.1l-0.2,1.1l1,0.1c0,0,2.1-0.1,3.3-2.5s1.3-3,1.3-3s0.6-1.4,0.7-1.5
		s1,0.1,2.1-1.6c1-1.7,1-1.7,1-1.7s0.4-0.6,1.4-0.4c0,0,0.6,0.2,0.7,0.3c0,0-0.3-0.3-0.3-0.8l0.6,0.1c0,0,0.3,0.2,0.4,0.1l0.5,1
		c0,0,2.8-1.6,3-1.6l0.7,1.2c0,0,1,2.7,4.5-0.9c0,0,0.8,2.6,4.4,2.2c0,0,1.1-0.1,1.5,0c0.4,0.1,1.3,0.5,1.3,0.5s1.4,0.5,2.3,0.3
		c0,0,0.4,0.8,2,2.5c0,0,1.1,1.5,0.9,2.1c0,0-0.1,0.5-0.5,1s-1.2,1.4-1.2,1.4s-1.6,2-1.6,2.4c0,0-1.4,2.1,0,3.1c0,0,0.4,0.3,0.3,0.5
		c-0.1,0.2-0.5,1-0.6,1.1c-0.1,0.1-0.9,1.4-0.9,2.2s0.1,1.3,0.8,2.3c0,0,0.9,1,2.1,1.5c0,0-0.1,0.9-2.3,3.5s-2,2.3-2,2.3
		s-1.2,1.4-1.5,1.8c-0.3,0.3-0.6,0.8-0.8,1.4c0,0-0.1,0.3-0.2,0.5c0,0-0.1,0.1-0.5,0c-0.4,0-4-1-5.3,1.7c0,0-1,1.6-1.5,3.2
		s-0.6,2.6,1.6,3.6c0,0,4.9,2.6,5.5,3.2c0.7,0.6,2.1,2.5,2.1,2.5s0.9,1.2,0.9,1.7c0,0-1.9,1.5-0.7,3.9c0,0,0.7,1.3,2.1,1.5
		c0,0,3.3,3.4,3.6,5c0,0-2,0.8-1.3,2.8l0.4,0.9c0,0,0.3,0.7,0.2,0.9c0,0-0.1,0.1-0.4,0.1c0,0,0.4,0.1,0.5,0.6l-2.1,0.7
		c0,0,0.6,1.4,0,3s-0.6,2-0.6,2.5s0.2,2.6,0.2,2.9s-0.5,5.5,5,3.3c0,0,3.2-1.1,3.7-0.9c0.4,0.3,0.7-0.1,2.1,1.1s0.4,0.3,0.4,0.3
		l2.8-0.5c3.1-0.3,4.5-1.2,4.3-2.8l3.3-2l1.1-0.4c0,0,5.2-2.8,6.3-3.8c1-0.8,2.6-1.2,2.4-4.6c0.1,0-0.8-4.8-0.5-5.3
		c0.2-0.6,1.1-3.5,1.1-3.5s1.1-3.4,1.5-3.9c0,0,0.7,4.7,0.6,6.3s0.1,2.4-0.2,2.9l0.9,0.6c0.1,0.1-0.5,0.3-1,0.4c0,0,0.4,4.2,0.1,4.7
		c0,0,0.4-0.5,0.9-0.4l0,0.4l-0.5,1.7c0,0,0.5,0.1,0.5,1c0,0-0.4,3.6,4.2,1.8c0,0,0.7-0.4,1,0.5c0.3,0.9,0.7,2.7,1,4.1
		c0.3,1.4,0.7,2.1,0.7,2.1s0.9,2.3,3.1,2.1c0,0,2.7,0.1,4.3-1.4c1.6-1.5,1.4-3.9,1.1-5.2c-0.4-1.3-0.5-1.6-0.5-1.6l-0.2-0.5
		c0,0-0.2-0.5,0.1-1.6c0.3-1.1,0.7-2.3,0.8-2.8c0.2-0.5,1.1-2.4,1.3-2.6c0.2,0.3-0.1,2,2.5,2.4c2.7,0.5,2.7,1.4,3.1,2.1
		c0,0,2.8-0.1,3.7-0.6l3.8-1.1c0,0,0.6-0.2,1.2,0s3.1-0.2,3.1-0.2l1.5-0.2c0,0,0.8-0.2,1,1c0.3,1.2,0.2,3.6,0.2,3.5
		c0,0-0.2,0.2-0.7,0.6c-0.5,0.4-1.8,1.7-0.5,4.5c0,0,0.8,1.3,1.3,1.6c0.5,0.4,0.7,1,0.7,1s0.7,1.3,1.9,2c1.2,0.7,2,1.2,3.1,1.1
		c0,0-1,3.3-0.7,5.4c0,0,0.1,1.2,0.6,1.1c0,0-0.2,0,0,0.4c0.2,0.4,1.7,2.6,1.8,2.8c0.1,0.1,0.8,1.4,0.5,1.7
		c-0.3,0.3-1.4,2.8-1.4,2.8l-1.5,3.2c0,0-1.8,4-1.9,4c0,0.1-2,4.3-2,4.3l-1.2,2.5c0,0-0.5,0-1-0.6c0,0-0.2-0.3-0.1-0.4
		c0,0-0.6,0.3-1.6,1c-0.9,0.6-1.6,1.1-1.6,1.1s-1.8,1.3-2,1.6s-0.1,0.1-0.2,0.3s-0.4,0.7-1.2-0.1c-0.7-0.8-1.5-2.3-1.7-2.7
		c-0.2-0.4-0.3-0.8-0.3-0.8s-0.3-0.4-0.7-0.8c-0.3-0.3-1.2-1.2-1.3-1.3s-1.3-1.4,0.1-2.6c0.1,0,0.5-0.4,0.5-0.4c0,0,0,0.1-0.1-0.2
		s0-1.6,0-1.6s0.1-2.3,0.2-2.8c0-0.5,0.2-2,0.4-1.9c0,0-0.5-0.4-0.5-2s0.6-5.4,0.6-5.4s0.3-1.6,0.8-2c0.5-0.4,0.9-0.5,1.3-0.4
		c0.4,0.1,1.5,0.5,1.8,0.5c0.3,0.1,1.2,0.3,1.9-0.7c0,0-0.1-1.5,0.2-1.6c0,0-0.5,0.2-1.9-1.4s-2.3-2.6-2.7-2.7c0,0-2.8-1.2-6.3-1
		c0,0-1.7-0.1-2.9,1.2c0,0-0.1,0.3-1.6,0.3s-1.7,1.6-1.8,1.7c0,0.1-0.2,1.1-0.7,1.9s-1.1,0.8-1.8,0.8s-0.7,0.5,0.3,0.9
		c0.9,0.4,1.4,0.8,0.7,1.8c-0.7,1-2.8,2.5-4.2,3.2c-1.4,0.8-1.5,0.7-1.5,0.7s-0.2,0.1-0.6,0.1c0,0-1.8,0-2.5,2.1c0,0.1-0.4,1-0.6,3
		c-0.2,2-0.8,2.8-0.8,2.8s-0.9,1.3-2.5,2.8c-1.6,1.5-2.7,3.1-2.7,5.6c0,0-0.5,4.4,1,3.9c0,0-1.2,0.6-3.5-0.6
		c-2.3-1.1-3.6-1.8-3.9-1.8c0,0-2.8-1.1-4.6-1.3s-3.2-0.5-5.9,0c0,0-1.7,0.5-2.2,0.7c-0.5,0.2-1.3,0.9-4,0.1s-2.4-1.1-5.4-1.3
		c-3-0.2,0,0,0,0s-3.1-0.1-3.6,0c0,0-2.7,0.1-2.9,0.1c0,0-1.9,0.1-2.2,0.3s-1,0.5-2,0.6c-1,0.1-2.5,0.3-2.5,0.3l-1.1,0.2
		c0,0-3.4,0.9-3.5,0.9c-0.1,0-3.4,0.9-3.4,0.9l-5.8,1.4c0,0-3.4,0.8-3.5,0.8c0,0-0.6,0.1-0.7,0c0,0,0.7-1.7,1-2.1
		c0.3-0.4,0.3-0.6,0.7-1c0.4-0.4,1-0.7,1.7-0.6c0.7,0.1,1.3,0.3,2-0.4c0,0,0.2-0.4,1.1-0.8s1.2-0.5,1.2-0.5s3.8-1.3,3.9-1.3
		c0.1,0,0.8-0.2,0.7-0.4s0-0.7-0.7-1.1c0,0,0.8-0.6,0.9-0.6c0,0,1.2-0.7,1.1,0.7c0,0-0.1,1.1-0.2,1.4c-0.1,0.4-0.1,0.4-0.1,0.4
		s0.1,0.2,0.2,0.3c0.2,0.1,0.8,0.4,1.1,0.4c0,0-0.2-1.3,0.9-1.5c0,0-1.2,0.1-1.2-0.1c0-0.3,1.1-0.9,1.6-1.1c0,0-0.7,0.2-0.8-1.8
		c0,0,0-1.5,0.3-1.7c0,0-1.3-0.4-1.4-0.5c0,0,0.4-0.6-0.9-1c-1.3-0.4-3.1-0.4-4.3,0.4c0,0-0.9,0.3-1.4,1.9c0,0,0.3-0.5-1.5-0.7
		c-1.9-0.1-2.8-0.2-2.8-0.2s-3.5-0.1-4.8-1.4c0,0-0.8-0.7-0.5-2c0,0-0.2,0.8-0.4,0.8c-0.2,0-0.5-1.1-0.5-1.1s-0.3-1.4-0.4-1.4
		c0,0-0.2-0.6-0.3-0.6c0,0-0.9-0.1-1.2,0.9s0.3,3.2,0.3,3.2s0.5,1.9,0.6,2c0,0.1,0.8,2.8,0.9,3c0.1,0.2,0.4,1.8,0.1,2.2
		c-0.4,0.4-1.1,0.2-2.6-0.9l-1.9-1.5l-0.9-0.8c0,0-0.5-0.5-0.6-1s0.1-1.1,0.5-1.8c0.3-0.7,0.5-1,0.5-1s0.6-0.9,0.1-2.2
		c0,0-0.3-0.9-0.9-1.6s-0.9-1.8-1-2.2c0,0-0.1-0.7,0-0.9c0,0,0.4-3.4,0.9-4.5c0.5-1.1,0.7-1.3,1.3-1.1c0,0-0.5-0.3-0.3-1
		c0.2-0.6,0.9-1.2,1.4-1c0,0-1-0.6-2.2,0.3c0,0-0.7,0.5-0.8,0.5c0,0-0.5,0.2-0.9-0.2c0,0-0.4-0.4-0.5-0.7l0,1.1l-0.9-0.4
		c0,0,0,0.1,0.4,0.5c0,0,0.3,0.4,0.4,0.6c0,0-1.1-0.1-1.8-0.4c0,0-1.2-0.2-1.5-0.2c-0.3,0.1-1,0.2-1.9,1.4s-1.9,3-1.9,3
		s-0.4,0.8-0.6,0.9c0,0,1.1,0,1.5,0.1c0,0-0.5-0.2-2,2.2s-3.7,7.5-3.7,7.5s-1.7,4.1-1.7,4.5c0,0.3-0.5,0.7,0.3,1.8s1.7,2.1,0.8,3.2
		l-0.7,0.6c0,0,0.2-0.6,5.8,2.1s5.9,2.8,5.9,2.8s3.3,1.6,3.4,1.3c0,0,0.1,0.4,1.2,1.7c1.1,1.3,1.6,2.1,1.4,2.1c0,0,1,0.1,1.8,0.5
		c0.8,0.3,1.4,0.7,0.3,1.3c0,0-0.3,0.1-0.6,1c0,0-0.3,1.1,0,1.1c0,0-0.6,0-0.6,0c0,0-0.2,0-0.6,0c0,0-0.2,0-0.4,0.1
		c0,0-0.4,0.4-0.5,0.5c0,0-0.6,0.5-0.7,0.5c0,0,0.3-0.2,0.4-0.2c0,0,0,0,0,0.1L410,733c0,0,0,0.2,0.1,0.2c0,0,0.4-0.2,0.7-0.3
		c0.3-0.1,1.2-0.4,1.2-0.4l0.3-0.1c0,0-0.2,0.1-0.5,0.8c-0.4,0.7-0.5,1.2-0.5,1.2s-0.4,1.3-0.3,2c0,0-0.1,1.4,0.9,1.4
		c0,0-0.8,0-1.7,0.9c0,0-1,1-1.9,0.7s-1.7-0.6-1.7-0.6s-1.8-0.8-1.9-0.8c0,0,1.5,0,2.1,0s1.5,0.1,1.8,0.2c0.2,0,1.1,0.2,1.1,0.2
		s-0.8-0.2,0.1-0.3c0,0,0-0.1-0.4-0.3c-0.4-0.3-0.9-0.6-1-0.5c0,0,0.4-0.1,0.9-0.2s0.7,0,0.8,0.1c0,0-0.1-0.3-0.9-0.3
		c0,0-0.6,0-0.7-0.2s-0.4-0.5,0.6-0.9c0,0-0.8,0-1.4-0.2c-0.7-0.2-0.8-0.4-0.4-0.7c0,0-0.5,0.3-0.4,0.7c0,0,0,0.3,0.5,0.7
		c0,0,0.1,0.1,0.1,0.1c0,0-0.1,0.3-0.4,0.4c-0.2,0.2-0.4,0.3-0.9,0c0,0-0.4-0.2-0.6-0.7c0,0-0.2-0.3-0.2-0.5c0,0-0.1,0.3-0.2,0.3
		c0,0-0.1,0-0.3-0.3c0,0,0.1,0.4,0.2,0.7s0,0.3-0.1,0.5c0,0,0,0-0.2,0c-0.2,0-1.1-0.1-1.2-0.1s-0.9,0-1.6,0.1c0,0-0.6,0.1-0.5,0.5
		c0,0-0.2-0.3,0.3-1.6c0,0,0.3-0.7,0.3-0.8c0,0,0.4,0.4,0.6,0.4c0,0,0.1-1.4,0.6-1.2c0,0-0.9-0.4-1.8,0.2l0-0.1c0,0-0.4,0.3-0.7-0.1
		c0,0-0.4,0.6-0.6,1c0,0-0.2,0.4-0.3,0.6s0,0,0,0s1-0.2,1.1-0.2c0,0,0-0.1-2.1,2.2c0,0-1.3,1.4-2,1.4c0,0-0.3,0.1-0.5-0.2
		c-0.2-0.3-0.3-0.5-0.3-0.6c0,0-0.2-0.4,0.5,0.2c0,0-0.2-0.6-0.9-0.6c0,0,0.1-0.4,1.3-0.2c0,0,0.1-0.3-0.2-0.7c0,0-0.6,0.1-1.5,0.5
		c-1,0.4-1.1,0.4-1.1,0.4s0,0.7-0.7,0.9c0,0,0-0.5-0.2-0.6c-0.1-0.2-0.3-0.2-0.6,0.3s-0.5,0.9-0.8,0.7c0,0-0.1,0-0.1,0.1
		s0.1,0.2,0.3,0.5c0.2,0.3,0.2,0.3,0.3,0.4c0,0-0.4,0.1-1-0.1c0,0,0.1,0.3,0.2,0.5c0,0,0.2-0.5,0.7,0c0,0,0.2,0.2,0.2,0.3
		c0,0,0,0-0.3,0l-0.8,0c0,0-0.3,0-0.4-0.1c0,0-0.1-0.1-0.1-0.4c0,0-0.2-0.8-0.4-1c-0.2-0.2-0.4-0.3-0.6,0.4
		c-0.3,0.6-0.3,1.8,0.2,1.5c0,0-0.5,0.3-1.7,0.4c-1.2,0.1-1.4,0.1-1.4,0.1s-0.2,0-0.2,0s-0.6,0.4-1.5,0.5c0,0-0.3,0-0.4-0.1
		s-0.1-0.2-0.1-0.2s-0.3,0-0.6,0.8c0,0-0.3,1-0.1,1c0.2,0,0,0,0,0s-1.5,0.2-2.2,1c-0.6,0.8-0.4,1.7,0.1,2.5c0,0,0.6,0.8,0.9,0.5
		c0,0-0.7,1.2-1.1,1.6c-0.4,0.4-0.6,0.7-0.9,0.6c0,0-0.2,0-0.5-0.6c0,0-0.2-0.5,0.4-0.8c0,0-0.3,0-0.7,0.5c-0.3,0.5,0,0.7,0,0.7
		s-0.6-0.4-0.4-0.9c0.2-0.5,0.7-0.9,0.7-0.9s0.1-0.1,0.1-0.1c0,0,0.1,0,0-0.1s-0.5-0.4-1.2,0.4c-0.7,0.7-1.1,1.5-1.4,1.8
		c0,0-0.4,0.5-0.5,0.3c0,0,0.5,0.6,1.1,0.9c0.6,0.3,1.2,0.7,1.2,0.7s1.3,0.7,1.8,1.9c0.5,1.2-0.5,1.8-2.1,2c0,0-0.7,0-0.9,0
		c0,0-0.3,0.2-0.5,1.5c0,0,0,1-0.8,1.5c0,0-1.9,1.8-2.7,2.1c-0.7,0.3-0.8,0.3-1.1,0.4c-0.3,0-0.8,0.3-1.5,1.4c-0.7,1.1-2,4.9-2,4.9
		c0,0-0.8,2.4-1.1,2.7C368.7,770.4,368.5,770.9,368.3,771.1z"/>
	   <text class="map_text"; transform="matrix(1 0 0 1 432.4297 751.9341)">Tokai</text>
	</symbol>
	
	<symbol id="kansai" viewBox="0 0 850.5 935.7">
<path d="M316.8,718.8c-1.8,0-2.2,2.8-3.6,3.6c-2.5,1.4-4.5,4-6.2,6.1c-0.4,0.5-5.6,8.8-5.6,7.8c0,2.3-2.2,3,0.8,5.5
			c1.4,1.2,3.2,4.6,5.9,1.3c0.7-0.9,9.8-4.4,5.6-5.9c-5.5-2,2.4-14.3,4.5-15.8C319.4,720.5,317.7,718.8,316.8,718.8z"/>
		<path id="XMLID_12_" d="M284.2,711.3c0,0-1.1-5.5-2.6-6.9c0,0,0.1-2.1-0.1-3.8c0,0-0.2-1.7,0.5-2.5c0,0,0.2-0.4,0.3-1.1
			c0.1-0.7,0.1-1.8-0.1-2.4l-0.3-0.2l1-0.7c0,0,1.2-0.7,1.3-1.5c0-0.9,0.3-1.5,0.3-1.5s0.4-0.8,1.2-1.7c0,0,1-0.9,1.5-1.3
			c0.6-0.4,1.1-0.7,1.1-0.7s1.1-0.4,0.5-2c0-0.1-0.6-1.5-0.8-1.7c-0.2-0.3-0.6-1.5-0.6-1.5s0.3,0,0.7-0.2c0,0,1.1,0.5,2.1,0
			c1.1-0.5,1.4-0.5,2-1.1c0.6-0.6,1.4-1.4,1.1-3.4c0-0.1-0.3-1.4-0.1-2.1s-0.4-2.6-0.4-2.6s-0.8-2.4-1.2-3.2
			c-0.5-0.8-0.6-1.1-0.8-1.2c0,0-0.6-1.8-0.7-2.2c-0.1-0.4-0.7-2.7-0.7-2.7s-0.8-2.6-1.5-3.6c-0.6-1-1.1-1.8-1.6-2.2
			c0,0,2.9-0.9,3.7-1.2c0.8-0.3,3.7-1.2,4-1.2c0.3,0,0.9-0.2,0.7,0.4c0,0,0.9-1.4,2.4,0.3c0,0,0.6,0.9,1,0.5c0,0,1.4-0.8,3-0.7
			l3.2,0c0,0,4.2,0.1,4.3,0.2l0.4-0.6c0,0,1.8-0.3,2.3-0.2c0,0,3.2,0.1,5.7-2.6c0,0,2.5-2,3-2.1c0,0,0.6-0.3,2.1-0.6
			c0,0,2.2-0.8,2.5-1c0,0,3.3-1.6,4.3-0.1l1.5,1.9c0,0,1.3,1.8,1.5,2.2c0.2,0.4,0.5,1.2,0,1.8c-0.5,0.6-1.1,0.2-1.1,0.2
			s-0.5-0.3-1.1,1c-0.6,1.2-1.2,1.8-1.6,2.3c-0.4,0.5-1.5,2-1.7,2.7c-0.2,0.7-0.2,1.1,0.3,1.4c0,0-0.4,0,0.9-1.3s1.8-1.8,1.8-2
			c0,0,0.1-0.1,0,0.6c-0.1,0.6-0.3,2,0.9,1.7c0,0-1.3,0.2-1.5,0.3c-0.2,0.1-0.2,0.1-0.2,0.1s-0.4,0.2,0.5,1s2.1,1.1,2.1,1.1
			s1,0.4,1.6-0.5c0,0-0.2,0.2,0.1,1.8s0,2.6-0.4,3.1c0,0,1-0.7,1.1-0.1c0,0-0.2-2.3,1.6-1.8c0,0,0.7,0.2,0.9,0.1
			c0.1-0.1,0.1,0.1,0.3-0.8c0.2-0.9,0.2-1.1,0.2-1.2c0-0.1,0.1-0.4-0.1-0.4s-0.9,0-1,0.1c0,0-0.7,0.2-1,0.1
			c-0.3-0.1-0.4-0.8-0.4-0.8s-0.2-1-0.3-1.5c0,0,0,0.4,1-0.1c1.1-0.5,2.2-1.2,2.2-1.2s2.8-1.8,3-2.1c0,0-1.1,1.4-0.5,2.3
			c0,0-2.2,1.5-0.5,5.8c0,0,1,2.5,2.6,3.7c0,0,0.6,0.3,0.6,0.5c0,0.2,0,0-0.1,0.6c-0.1,0.6-0.1,1.8,1.5,2.1c0,0,0.6,0.1,1.8,0
			c0,0,1.2,0.6,3.1,0.7c0,0,0.8,0.1,1.8,0.8c1,0.7,2.7,0.2,2.7,0.2l1.4-0.4c0,0,1.9-0.8,2.3-1l0.9-1.5c0,0,0.7-1.1,0.9-1.1
			c0,0,0.4,0.8,1,1c0.5,0.2,1.5,0.2,2.4-1.5c0.9-1.7,1.4-2.8,1.4-2.8l1.2-2.8c0,0,1.9,2.9,3.9-0.5c0,0,0.4-1.1,1.8-1.2
			c0,0,0.7-0.2,1.8,0.4c0,0,0.6-0.4,0.7-0.4c0,0,0.5-0.1,0.6-2.5l1.3,0.5l0.5-0.9l0.2-0.2l0.8-0.3c0,0-0.6-3.3-0.7-3.8
			c-0.1-0.5-0.4-2.9-0.4-3.1c0,0,1.1,0.3,1.3,0.5c0,0,0,1.4,1.1,2s2.3-0.3,2.3-0.3l2.2,3.8c0,0-0.1,0.8,0.5,1.4l0,0.1l1,2
			c0,0,0.7-0.4,1-0.3c0,0,0.2,0.3,0.3,0.5c0.1,0.2,0.3,1.2,0.4,1.5c0.1,0.3,0.5,2.2,1.7,2.9c0,0,0.4,0.5-0.1,4.7S386,677,386,677
			s-0.3,3.3,0.2,4c0,0-0.8,1.2,0.6,2.4c0,0,0.8,1.6,1,2.7c0,0-0.1-0.4,0.5-0.8l0.4,0.9l-0.7,0.9c0,0,0.3,0.5-0.1,2.7
			c-0.4,2.2-1.6,5.5-1.6,5.5s-1.1,3-1.8,3.8c0,0-0.2,0.4-1.4,0.8c-1.2,0.4-2.8,0.8-3.9,1.6c0,0-0.2,0.3-0.5,0.3c-0.3,0-1-0.6-1-0.6
			s-1-0.9-1.5-1c0,0-0.5-0.2-0.9-0.1c0,0-0.1,0.1-0.9-0.1c-0.8-0.2-1.9-0.4-2.4-0.3c0,0-1.5-0.1-2,1.2c0,0-0.3,0.9,0.3,1.8
			c0,0,0.4,0.5,1.1,0.6c0,0-0.5,0.8-1.3,1.6c-0.9,0.8-1.5,1.1-1.7,1.1c0,0-1.7,0.5-1.9,0.4c0,0,0,0.9,0.4,1.6c0,0,0.1,1,1.4,2.5
			c0,0,0.8,2,0.8,2.2s0.1,4,0.3,5.3c0.2,1.3,0.5,3.8,2,4.9c0,0,1.2,1,2.8,0c0,0,0.5,1.9,1.6,1.8c0,0,0.7,0,0.9,0.2
			c0.2,0.3,0.5,0.7,0.5,0.7s-1.6,1.2-2.3,1.4c0,0,0.8-0.1,1.1,0.7l-0.6,0.3l-1.3-0.8c0,0-0.1,0.3-1,0.5s-1.8,0.8-1.8,0.8
			s-1,0.7-1.4,2.1c0,0-0.3,0.5,0.1,1.5c0.5,1,1.4,2.1,1.4,2.1l1,1.4c0,0-0.7,3.3-0.7,3.7c0,0-0.4,2.6-0.5,3.9s-0.3,3.7,0.3,5.8
			c0,0-0.6,0.4-0.6,1.5c0,0,0.1,1,0.3,1.9c0,0-0.4,0-1.1-0.3c-0.7-0.3-1.7-0.4-2.7,0.7c-1.1,1.1-1.1,1.4-1.1,1.5
			c0,0.1,0,0.6,0.2,0.9c0,0-0.3,0.2-1,0.5c-0.7,0.3-3,0.7-2.7,2.7c0,0-0.2-0.1-1.8,0.1l0.3,0.8c0,0-0.9,0-1.3,1s-0.2,2.3-0.2,2.3
			s-0.3,0.5,0,1c0,0-0.8,1.5,0.8,3.6c1.6,2.1,2.4,2.8,2.4,2.8s2.6,2.4,4.3,3.1c0,0-1.1,2.6,0,2.1c0,0-2.5,1-1.6,3c0,0,0.5,1,0.3,1.4
			c-0.2,0.4-1.3,1.4-1.3,1.4l-6.1,5.2c0.1,0.1,0.1,0.1,0.1,0.1c0.1,0,0.1,0,0.2,0c0,0,0.1,0,0.1-0.1c0-0.1,0-0.1,0-0.1s0,0,0.1,0
			c0.1,0,0.3,0.2,0.3,0.2c0,0,0.1,0,0.1,0c0,0,0.3,0.2,0.3,0.2s0.1,0.1,0.2,0.1c0.1,0,0.2,0.1,0.4,0.1c0,0,0.1,0,0,0.2
			c-0.1,0.2-0.1,0.2-0.1,0.2s0,0.1-0.3,0.1c0,0-0.1,0-0.2,0c-0.1,0-0.2,0-0.2,0.2c0,0.1-0.1,0.2-0.2,0.3c-0.1,0.1-0.1,0-0.1,0
			s0,0-0.1-0.1c0,0-0.1-0.1-0.1-0.1s0,0.1,0,0.2c0,0.1,0.1,0.1,0,0.2c0,0,0,0-0.2,0c-0.2-0.1-0.3-0.2-0.3-0.2s-0.1-0.1-0.1-0.2
			c0-0.1,0-0.2,0-0.2c0,0,0-0.1-0.1-0.2c0,0-0.2,0-0.2,0s-0.1,0-0.2-0.1c0,0-0.1,0-0.1,0s-0.2,0-0.2,0.1s-0.1,0-0.1,0.1
			c0,0-0.1,0-0.1,0c0,0-0.3,0.3-0.3,0.3c0,0-0.3,0.3-0.3,0.3s-0.5,0.5-0.7,0.8c0,0-0.1,0.2-0.2,0.2c0,0-0.2,0.2,0,0.3
			c0,0-0.1,0-0.5-0.4c0,0-0.2-0.2-0.3-0.5l1.2-0.5c0,0,0.3-0.1,0.3-0.2c0-0.1,0-0.1-0.2-0.2c-0.1-0.1-0.6-0.3-0.6-0.3
			s-3.2-1.2-3.7-1.3c0,0-4.4-1.4-4.7-1.4c0,0-3.9-1.1-4.5-1.1c0,0-0.4,0-0.6,0c-0.2,0.1-0.9-0.1-1.1-0.3c0,0-0.7-0.3-1.9-1.3
			c-1.2-1-1.2-1-1.2-1s-0.6-0.4-0.7-0.5c0,0-0.5-0.3-0.4-1.3l0.1-1.2c0,0,0.3-1.3-0.9-1.4c0,0-1.8-0.4-1.7-2.6l0-0.1l0.5,0.1
			c0,0,3.7,0.4-0.4-3.1c0,0-2.3-1.8-3.7-1.8c-1.4,0-3.8-2.9-3.8-2.9s-2.1-2.3-2.7-2.8c-0.6-0.5-2.6-2.4-4.3-0.9c0,0,0.5-0.4,0.8-1.6
			c0,0,0.3-1.2-0.3-0.7c0,0,1.2-1.3,2.2-2.1c0,0-2.1-0.3-2.1-0.7c0,0-0.2-0.1,1.3-0.9c1.4-0.8,2.5-1.1,2.9-1.1c0,0-1.3,0.2,0.2-0.8
			c0,0,1-0.6,1.2-0.7c0,0-1.9-1.3-2.5-1.4c0,0-2.2-1.2-2.5-1.1l1.5-0.6c0,0-1-0.3,0.1-1.3c0,0,0.9-0.8,1.3-0.6l-0.7-0.9
			c0,0,1-0.3,2.4-1.4s1.1-1.7,0.1-1.9c0,0-0.6-0.1-0.9-0.1c0,0-0.5-0.1-0.7-0.8s-0.4-1.5-1.1-2c0,0,0.2-0.1,0.3-0.1
			c0,0-1.2-0.9-1.7-1.2c-0.5-0.3-1.6-1-1.6-0.8c0,0,0-1,0.1-1.6s0.2-0.9,0.4-1c0,0,0.7-0.5,2.1-0.7l2-0.5c0,0,2.1-0.3,3.8-1.9
			c0.1-0.1,2.9-3,2.9-3s2.1-2.1,2.5-2.3c0,0-0.2-0.3-0.3-0.4c0,0,0.1-0.1,0-0.6c0,0,0.9,0.1,1.5-1.5c0.6-1.6,1.5-2.2,2.3-2.4
			l-0.3-0.3c0,0-0.1-0.1-0.1-0.2c0-0.1,0-0.1,0.1-0.2s0.1-0.4,0-0.8c0,0,0.2,0.1,0.3,0.3l0.2,0.5c0,0,0.6-0.6,0.8-1
			c0.3-0.4,0.4-0.6,0.4-0.6l0.2-0.6c0,0,0.2-0.6,0.2-0.8c0-0.2,0-0.3,0-0.3s-0.3-0.2-0.4-0.2c-0.1,0-0.1-0.1-0.4-0.1
			c-0.3-0.1-0.5-0.2-0.8-0.5c0,0,0.8,0.1,0.9,0.1c0.1,0,0.3,0.1,0.3,0.1s-0.3-0.2-0.6-0.2c0,0-0.2,0-0.6-0.2l0-0.7
			c0,0,0.5,0.3,0.6,0.2c0.1-0.1,0-0.3,0-0.5c0,0,0.3,0.1,0.3,0.3c0,0,0.1,0.2,0.1,0.2c0,0,0.1,0.1,0.2,0.2l0.2,0.1l-0.2-0.9
			c0,0-0.1-0.7-0.2-0.9c0,0-0.1-0.3-0.6-0.4c0,0-0.6-0.2-0.7-0.2c0,0,0.3-0.7,0-1.3c0,0,0.2-0.1,0.3-0.3l1.2-0.5l-1,0.2
			c0,0-2.2-0.4-2.3-0.5c-0.1,0-1.6-0.3-3.2-0.2c0,0-2.2,0.1-3.3,0.3c-1.1,0.2-2.1,0.4-3.3,1c-1.2,0.6-1.2,1.3-1.2,1.6
			c0,0,0,0.3,0.1,0.4c0,0,0.1,0.4-0.2,0.7c-0.3,0.3-0.6,0.3-1.2,0.4c0,0-0.9,0-1.8-0.1c0,0-1.1-0.2-1.8-0.3
			c-0.6-0.1-1.4-0.3-1.4-0.3s-2.4-0.6-2.6-0.8s-1.8-0.6-2-0.6c-0.2-0.1-2-0.7-2-0.7l-1.1-0.4c0,0-0.1,0,0-0.4
			c0.1-0.4-0.2-0.5-0.2-0.6c0,0-0.3-0.2-0.3-0.2s-0.3,0.3-0.4,0.3c0,0-0.2,0.2,0,0.3c0.1,0.1,0.3,0.1,0.3,0.1s0.3,0.1,0.3,0.1
			s0.2,0.1,0.3,0.2l-0.6-0.2c0,0-0.7-0.3-0.7-0.3c0,0-0.2-0.1-0.3-0.1c0,0,0.1-0.2,0-0.9s-0.2-1.1-0.2-1.1l0,1.3
			c0,0-0.7-0.5-0.8-0.5c0,0-0.5-0.2-0.6-0.3c-0.1-0.2-0.2-0.8-0.2-0.8l-0.1-1c0,0-0.9,0.7-1.1,0.6c-0.2-0.1,0-1.4,0-1.5
			c0,0-0.4,0.3-0.7,0.4c-0.4,0.2-0.7,0.4-0.7,0.5c0,0-0.3-0.6-0.4-0.6c0,0-0.1-0.2-0.3-0.2c0,0-0.4-0.2-0.6-0.2c0,0-0.5-0.1-0.8-0.2
			c0,0-0.6-0.3-0.7-0.3l0,1c0,0-0.4-0.4-0.6-0.5c0,0-0.3-0.1-0.3-0.1c0,0-0.1,0,0-0.8c0,0-1.1,1-1.2,1l0-0.9c0,0-0.4,0.3-0.5,0.4
			c-0.1,0.1-0.3,0.3-0.7,0.5l0.1-0.3c0,0,0-0.2,0.3-0.3c0,0,0.1,0,0.2-0.3l-1.3,0c0,0-0.1,0.1,0,0.2s-0.5,0.7-0.5,0.7
			s-0.4-0.1-0.4-0.1c0,0-0.1-0.1-0.4,0.2l-0.5,0.4l-0.2-0.2c0,0-0.1-0.1-0.2-0.4c0,0-0.1-0.2-0.2-0.2c-0.1,0-0.4-0.1-0.3,0.4
			c0,0,0.1,0.2,0.1,0.3c0,0-0.5-0.4-0.9-0.4s-0.9,0.1-1.4,0.3c-0.4,0.2-1.2,0.6-1.2,0.6s-0.4,0.2-0.8,0.2c0,0-0.2,0-0.3-0.1
			s-0.1-0.1-0.1-0.3c-0.1-0.2-0.4-1.5-0.4-1.5c0,0,0-0.1-0.1-0.2c0,0-0.1,0-0.1,0.3c0,0,0,0.5,0,0.7c0,0,0.1,0.7-0.1,0.9
			c0,0-0.1,0.1-0.2,0.1c0,0-0.3,0.2-0.9,0.5c0,0-0.8,0.3-1.1,0.4c-0.3,0.1-0.7,0.2-0.9,0.2c0,0-0.2,0-0.2-0.1c0,0,0,0.1-0.2,0.4
			c0,0-0.2,0.3-0.3,0.2s-0.2,0-0.4-0.2c0,0-0.4-0.7-0.6-0.9l-0.2,0.1C285.1,710.7,284.7,711,284.2,711.3z"/>
		  <path class="gp_svg1" d="M362.3,695.5c0,0-1.4,0-1.5-2.3s0.8-4.6,0.8-4.6s1.7-4.9,2.1-5.5l1.7-3.5c0,0,0.2-0.3,0.7-0.8
			c0.5-0.5,2.9-2.7,2.4-2.8s0.1,0,0.1,0s2.4,0.8,1.2-2.7c-0.2-0.5-1.1-2.5-1.2-2.8s0.5-1.6,0.6-1.9c0.2-0.3,1.3-2.3,2.1-3
			c0,0,1-1.1,1.4-0.8c0,0,0.5,1.8,0.8,2.1s0.3,0.5,0.7,0c0,0,0.1-0.3,0.1-1.1c0-0.8,0.2-1.7,0.7-1.9c0,0,0.3-0.2,0.7-0.2
			c0,0,0.2,1,0.4,2.1c0.2,1.2,0.5,2.9,0.5,2.9s0.1,0.5,0.4,0.8c0.4,0.3,0.6,0.5,1.2,0.8c0.6,0.3,1.6,0.6,1.9,2.3
			c0,0,0.3,1.3-1.3,3.5c-1.6,2.2-3.7,3.9-3.7,3.9s-1.8,1.5-2.2,1.9s-1.9,1.4-1.9,1.4l-2,1.5c0,0-0.8,0.6-0.7,0.7
			c0,0-1.2-0.7-2.4-0.1c-1.2,0.6-2,2.8-2,2.8s-0.7,1.7-1,3.5c-0.3,1.8-0.5,3-0.5,3S362.4,695.5,362.3,695.5z"/>
	       <text class="map_text"; transform="matrix(1 0 0 1 285.4165 628.045)">Kansai</text>
	</symbol>
	
	
	<symbol id="chugoku" viewBox="0 0 850.5 935.7">
		<path id="XMLID_14_" d="M191.3,760.7c-0.9,0.9-3.2,1.2-3.5,1.6c-0.9,1.1-0.9,3.9-3.1,3.4c-0.4-0.1,0.3-1.6,0.3-1.6
			c-0.8-2-5.3,1-6.3,1.7c0.1,0-1.7-3.3-1.8-3.8c-0.2-1.8,2.1-1.8,2.1-2.7c0-0.4,6.8,1.7,5.3,3.3c0.3-0.3,4-1.3,3.9-1.8
			C188.1,759.4,192.4,759.6,191.3,760.7z"/>
		<path id="XMLID_25_" d="M193,742.8c0.6,1.6-2.4,3-0.6,4.4c1.4,1.1-2.3,2-2.8,2.1c0.1-0.4,0.3-0.7,0.6-1c0,0.9,0.1-2.8-0.3-2.9
			c-0.3,0.4-0.4,0.8-0.4,1.2c-0.4,0.3-2.6-4.4-2.8-5c-0.5-1.4,3.5,2.2,3.5,2.3c0.3,0,0.5-0.2,0.5-0.6c0.3,0.3,0.6,0.7,0.6,1.2
			c-0.1-0.1,0.6-1.4,0.1-2c-0.5-0.5-1.6-0.3-1.7-0.6C188.4,738.7,192,740.3,193,742.8z"/>
		<path id="XMLID_24_" d="M197.2,750.6c-0.7,0-1.6,1.8-1.1,2.3c-0.4-0.5-2.3-1.7-2.4-2c0.2,0.6-2.9,2.1-3,0.5
			c-0.1-1.4,3.4-2.3,2.5-3c-1.2-1,0.5-2.4,1.1-3.1c0.6-0.7,0.6,0.1,0.9,0.2c2.5,0.8-0.4,1.8-0.6,2.2c-0.2,0.5,1.2,0.4,1.3,0.4
			c-0.2,0-0.9,2.3-0.6,2.3c-0.1,0,1.8-1.9,1.8-0.5C197.1,750.1,198.4,750.6,197.2,750.6z"/>
		<path id="XMLID_22_" d="M226.1,741c-0.3,0.5-0.7,0.8-1.4,0.7c-0.5-0.3,0-1.5,0.1-1.8c0.1-0.5-2.5,1.6-2.8,1.3
			c-0.5-0.5-0.3-2.8-0.1-2.7c-1.4-1-0.1-1.2-0.1-2.2C221.9,737.4,228.3,738.7,226.1,741z"/>
		<path id="XMLID_19_" d="M228.2,737.8c0,0.2-0.2,1.9-0.2,1.9C222.2,741,227.1,729.3,228.2,737.8z"/>
		<path id="XMLID_8_" d="M229.7,732.7c-0.1,0-2.5,3.8-3,1.5C225.7,730.8,229.7,732.8,229.7,732.7z"/>
		<path id="XMLID_18_" d="M215,740.5c-0.1,1-1.9,2.2-0.9,3.2c-0.4-0.4-2,0.6-2.5,0.6c-1.7,0.1-0.8-1-1.7-1.9
			c0.6,0.7,2.3-1.1,2.5-1.6c-0.1,0.2,0.4,0.8,0.6,0.8C213,741.6,215.2,737.8,215,740.5z"/>
		<path id="XMLID_13_" d="M184,741.6c-3.6,2.4-2,1.2-1.7-1C182.7,737.7,187.8,738.9,184,741.6z"/>
		<path id="XMLID_11_" d="M112.8,761.7c0.1,0.4,0.5,0.9,0.5,1c0.5,0.7,1.1,0.5,1.1,0.5c0.5-0.3,1.2-1.3,1.2-1.3
			c0-0.2,0.9-1.2,0.9-1.2l0.2-0.4c0.7-1.1,1.5-2.3,2-3c0.5-0.7,1.5-2.5,1.5-2.5c0.6,0.2,2.1,1.1,2.1,1.1c0.1,0,0.8,0.5,0.8,0.5
			c0.1,0.1,0.9,0.7,0.9,0.7c0,0,0.4,0.4,0.5,0.5c0.1,0.1,0.7,0.8,0.7,0.8s0-0.3,0.2-0.8c0.2-0.5,0.2-0.6,0.2-0.6l0.4,2
			c0,0,0.4,1.8,1.4,2.6s2.6-0.6,2.6-0.6c0,0.2,0,0.4,0,0.4l-0.3,0.7c2.1,0.4,3.6-0.5,3.6-0.5c1.8-1,2.8-3.2,2.8-3.2
			c0.2-0.4,0.9-1.9,0.9-1.9s0.3-0.6,0.4-1s0.5-1,0.5-1c0,0.1,0,0.5,0,0.5c0,0.1,0,2.2,0,2.2c0,0.2,0,1.3,0,1.2c0,0,0,0,0,0
			c0-0.1,0.1-0.3,0.5-0.7c0.5-0.4,0.9-0.6,0.9-0.6c-0.1,0.1-0.2,0.2,0.1,0.7s0.8,1.1,0.8,1.1s0.2-0.5,0.2-0.6c0-0.1,0.1,0,0.1,0
			l0.4,0.3c0.3-0.3,0.3-0.5,0.3-0.5c0.1-0.5-0.6-0.8-0.6-0.8c0.5,0.2,0.8,0.2,1.1,0c0.3-0.2,0.5-0.4,0.5-0.4
			c-0.2,0.2-0.4-0.1-0.4-0.1s-0.4-0.6-0.1-0.9c0.3-0.3,1,0.1,1,0.1s0.3,0.2,1.7,1.2c1.4,1,2.1,0.7,2.1,0.7c0.9-0.3,1.2-1.8,1.3-2.1
			c0.1-0.2,0.3,0.1,0.3,0.1c0,0,0.7,0.8,0.7,0.8c0.2,0.1,1-0.3,1-0.3c0.1,0,1.2-0.5,1.5-0.6c0.3-0.1,3.4-1.5,3.4-1.5
			c0.9-0.4,1.6-0.6,1.6-0.6l-0.7,1.1c0.2-0.1,1.6-0.3,2.8,0.1c1.2,0.4,1.2,1,1.2,1.1c0,0.1,0.4,0.5,0.4,0.5l2.6,2.2l2.1,1.7
			c0.2,0.1,1.8,1.5,1.8,1.5s0.3,0.3,0.4,0.4c0.1,0.1,0.2,0.2,0.1,0.2c-0.1,0-0.1,0-0.1,0c0,0.1,0.4,0.4,0.4,0.4l0.5,0.3l0.9,0.6
			c0,0,1.2,0.7,2.1,1.1c0.9,0.5,3.4,1.6,3.4,1.6s1.5,0.7,1.7,0.5c0.2-0.2-0.1-1.2-0.1-1.2c0-0.3-0.5-1.9-0.6-2
			c0-0.1-0.7-2.1-0.7-2.1c-0.2-0.6-0.2-0.7-0.2-0.7c0.1-0.2,0.7-0.5,0.7-0.5l1.4-0.7c0.1-0.7,0.6-0.9,0.6-0.9s0.2-0.3,0.4-0.7
			s0.6-1.6,0.7-1.6c0.4-1,1.3-0.7,1.3-0.7c0.1-0.2-0.3-1.2-0.3-1.2c-0.2-0.1-0.5-1.5-0.5-1.5c-0.4-1.7,0.7-3.1,1.3-4.1
			c0.7-1,0.3-3,0.3-3.3s-0.4-2.2-0.4-2.2c0.1-1.1,0.6-1.9,0.6-1.9s-0.7,1.3,0,0c0.7-1.3,1.5-2.1,2-2.6c0.5-0.6,1.4-1.3,1.4-1.3
			c0.2-0.2,1.2-0.9,1.2-0.9c0,0,0.4-0.2,0.4-0.2s0-0.1,0-0.2c0-0.1-0.2,0-0.2,0c-0.1,0.1-0.2,0.1-0.2,0.1c-0.1,0,0-0.1,0-0.1
			s0.1-0.1,0.3-0.1c0.2-0.1,0.2-0.1,0.2-0.1c0.1,0,0.1,0.1,0.1,0.1c0.1,0.1,0.3,0.1,0.3,0.1c0-0.2-0.1-0.6-0.1-0.6
			c0.2,0,0.3-0.2,0.3-0.2l0.2-0.2c0,0,0.1,0,0.1,0c0,0.1-0.2,0.2-0.2,0.2s0,0-0.1,0.2c-0.1,0.2,0.2,0.3,0.2,0.3c0.3-0.2,1-0.5,1-0.5
			c1.2-0.5,2.2,0.1,3.7,0.3c1.5,0.2,2.9-0.6,2.9-0.6s-1.4,1.6-1.3,1.6s0.9,1.9,0.9,1.9s1.3,2.9,1.7,3.7c0.4,0.8,0.6,0.4,0.6,0.4
			c-0.4,1.7,0.2,2.1,0.2,2.1c1.2,0.2,1.8-2,1.9-1.9c0.1,0.1,0.7,0.9,1.7,1.1c1,0.2,2.2,0,3.7-0.6c1.5-0.6,3.4-1.9,3.4-1.9
			c-0.9,0.4-0.1-0.9-0.1-0.9c0.1-0.5,1.3-2,1.7-2.4c0.4-0.5,0.9-0.4,0.9-0.4s1,0.2,1.8,0.3c0.8,0.2,1.5-0.3,1.5-1
			c0.1-0.7,0.9-0.8,0.9-0.8c0.6-0.2,4.2-0.1,4.2-0.1s1.6,0,1.9,0c0.3,0,1.8-0.1,2.6-0.5c0.8-0.4,0.6-1,0.5-1.5c-0.2-0.5-1-1.5-1-1.5
			c0.4,0.4,1.1,0.6,1.8,0.5s1.7-0.3,1.7-0.3c0.6-0.1,2.3-0.9,2.3-0.9l1.6-0.9c0,0,0.8-0.4,1.6-1.2c0.8-0.7,0.7-0.5,0.6,0.3
			c-0.1,0.8-0.9,2.4-0.9,2.4c0.1,0,2.3,0.6,2.3,0.6c1.5,0.3,2.8,0.2,2.8,0.2c0.7-0.2,1.8-0.2,2.1-1.5c0.2-1.3-0.8-3.1-0.8-3.1l2,1.8
			l0.7-0.7l-1.6-1.2l0.9,0.3c0.3,0.1,1,0.4,1,0.4c-0.1-0.2,0-0.8,0-0.8l0.5,0l1.8,0c0,0,0.3-0.1,0,0c-0.4,0.1-1.1,0.5-1.1,0.5
			c0.1-0.1,3.9-0.9,3.9-0.9l2.5-0.7l0,0c0.3-0.4,3.5-3,3.5-3c0.1,0,0.3,0.6,0.3,0.6c0.1,0,0.5,0.3,0.5,0.3c0-0.4,0.3-1.2,0.5-1.6
			c0.2-0.4,0.5-1.7,0.5-1.7s0,0.9-0.1,2.2s0.3,2.2,0.3,2.2c0.5,1.2,1.9,1.2,1.9,1.2c-0.1-0.2-1-1.6-1-1.6c0.9-0.6,0.9-1.1,0.9-1.1
			c0.1,0.1,0.1,0.4,0.1,0.4s0.1-0.7,0,0c-0.1,0.7,0.1,0.9,0.1,0.9c0.2,0.4,0.6,0.3,0.6,0.3c0.4-0.5,0.4-1,0.4-1c0,0,0-0.3,0,0
			c0,0.3,0.1,1.4,0.1,1.8c0.1,0.4,0.2,1,0.8,1.6c0.6,0.6,1.9,0.9,1.9,0.9c-0.1-0.1-0.2-0.9-0.2-0.9c-0.3-1.5,1.1-1.3,1.1-1.3
			c0.1,0,1.3,0.2,1.3,0.2l1.9,0.5c0,0,1,0.2,1.3,0s0.2-0.3,0.4-0.7c0.2-0.4,0.6-2.6,0.6-2.6c0.4-1.6,1-1.7,1-1.7
			c0.1,0,1.1,1.1,1.1,1.1c0,0-0.3-0.7,0.8-2.2c1.2-1.6,1.4-1.6,1.4-1.6c-0.4,0-1.3-0.1-1.9-0.2s-1.5-0.2-2.4,0.2
			c-0.9,0.4-1.6,1.9-1.6,1.9c0.2-0.4,0.3-1.1,0-1.4s-0.9-0.2-0.9-0.2c0.3-0.2,0.7-0.3,0.7-0.7c0-0.5-0.5-0.5-0.5-0.5
			s1.4-0.2,1.7-0.2s0.2-0.1,0.2-0.1c-0.2-0.4,0-1.4,0-1.4c0.3,1.3,1.5,1.2,1.5,1.2c0-0.2,0.1-1.1,0.1-1.1l0.3-1.9l0.1,0.8
			c0,0-0.1,0.8,0.2,1.3c0.3,0.5,1.8,0.5,1.8,0.5c-0.1-0.3,0.2-2.3,0.2-2.3c0.1,4.1,0.8,2.5,0.8,2.5c-0.9,1.5,1.4,0.9,1.4,0.9
			c0.6,0,3.8-1.3,3.8-1.3l0.6-0.2c0.4-0.1,0.4-0.2,0.4-0.2c0.2-0.2,0.3-0.5,0.3-0.5c0.3-0.9,0.6-1.3,0.6-1.3c0.5-0.8,1-1.1,1-1.1
			c0.3-0.3,1.2-0.5,1.2-0.5s0.3,0,0.3-0.1s-0.2-0.1-0.3-0.1s-0.8-0.1-0.8-0.1c-0.1-0.1-0.1-0.1-0.1-0.1s0-0.2,0.2-0.4
			c0.2-0.2,0.3-0.7,0.3-0.7c-0.1-0.8-1.8-1.2-1.8-1.2c0.4,0,0.4-0.5,0.4-0.5c0-0.6-0.5-0.6-0.5-0.6c0.2-0.1,0.8,0.1,2.6,0.5
			c1.7,0.4,2.8,0.4,2.8,0.4s0,0.1-0.5-2.2c-0.5-2.3-1.6-4.4-1.6-4.4c0.9,0.4,1.2-0.1,1.2-0.1l0-0.1l-1.9-0.9c0.3-0.7,0.1-2,0.1-2
			s-0.1-1.9-0.1-3.2s0.6-2.2,0.8-2.4c0.1-0.2,0.1-1.3,0.1-1.3c-2.4-2.2,1.8-4.2,1.8-4.2c0.3-4,4.7-6.3,4.7-6.3s-0.9-1.8-1.3-2.9
			c-0.4-1.1-0.6-2.6-0.6-2.6c0.6-0.7,1.6-0.9,1.6-0.9c0.6-0.2,1.6,0,2.3,0.4c0.7,0.4,1.4-0.1,1.4-0.1c1.3-0.6,1.2-1.6,1.2-1.6
			s-0.3-1.5-0.2-2.5c0.1-1.1,0-1,0-1c-1.3-4.8-2-4.9-2-4.9c-0.1-0.1-0.8-2.2-0.9-2.8c-0.1-0.6-1-3.4-1-3.4c-0.2-1-1.2-2.8-1.2-2.8
			s-0.6-1-1.1-1.5c-0.5-0.5-0.4-0.8-0.4-0.8l-0.4-0.1c-0.5,0-1,0.6-1.1,0.7s-1.5,1.7-1.7,2s-0.6,0.6-0.8,0.7s-0.7,0.3-0.7,0.3
			c-0.4,0.2-0.6,0.2-2.9,0.9c-2.3,0.7-6.1,1-6.3,1c-0.2,0-6.8,0.2-6.8,0.2l-4,0.2l-3.4,0.2c0,0-3.4,0.3-3.6,0.3
			c-1.7,0.2-3.2,0-3.2,0s-2.2-0.3-3.4-0.6c-1.2-0.3-3-0.2-3-0.2s-1.5,0.1-2.6,0.9c-1.1,0.8-1.5,1.7-1.5,1.8c0,0-0.5,1.2-0.5,1.2
			c-0.4,0.6-1.2,0.6-1.3,0.6c-1.6,0.1-3.3-0.7-3.3-0.7c-1.7-0.6-3.1-2.1-3.1-2.1c-1.3-1.5,0-2.7,0-2.7c-0.5-0.1-2.8,1-2.8,1
			c-0.6,1.1,0.8,2.6,0.8,2.6c0.7,1,2.8,2.4,2.8,2.4l0.9,0.7l-0.5,0.8c0,0-0.1,0-0.1-0.1c-0.8-0.6-2.3-1.3-2.8-1.4
			c-0.4,0-1.5,0.1-1.5,0.1s-0.3,0.1-1.3,0.2c-1,0.1-1.7-0.2-1.7-0.2c-0.6-0.1-0.8-0.5-0.9-0.7c-0.1-0.1-0.1-0.5-0.1-0.5
			c-0.1-1,0.2-2,0.2-2c0.4-1.1,0.8-1.5,1.4-1.6c0.6-0.1,1.5,0.6,1.5,0.6c-0.7,0.8-1.5,0.2-1.5,0.2c0.6,0.2,0.8,0.7,0.8,0.9
			s0.2,0.1,0.2,0.1l1.1-1.2c-0.1,0-1.6-1.2-1.6-1.2c0.7,0.5,1.9-0.3,1.9-0.3c0.2-0.5,1.4-0.8,1.4-0.8c0.4-0.3,0.9-0.3,0.9-0.3
			c1.4,0,3.4-0.8,3.4-0.8c-0.6,0.2-4.1-0.4-4.1-0.4c-2.4-0.1-2.7-0.3-2.7-0.3c-1.6,1.2-2.1,0.3-2.1,0.3c-1.2-1.9-2.9-1.7-2.9-1.7
			c0.3,0.1,0.4,0.7,0.5,0.9c0.1,0.3,0,0.3,0,0.3c-0.2-0.1-0.8-0.1-1.5,0.1c-0.7,0.2-0.9,0.4-0.9,0.4c0.1,0,0,0.3,0,0.3
			s-0.1,0.7-0.4,1.3c-0.4,0.5-0.8,0.5-1.1,0.6c-0.3,0-0.4,0-0.8,0.1s-0.6,0.2-0.6,0.2s-0.4,0.2-0.5,0.6c-0.1,0.4-0.4,0.5-0.4,0.5
			s-2,0.4-4.2,0.9c-2.1,0.4-6.2,1.5-6.2,1.5c-2.3,0.7-1.9,0.9-1.9,0.9c0.7,0.3,1.2,1.1,1.2,1.1c-0.1,0.4-1.3,0.4-1.3,0.4
			s-2,0-3.4,0.5s-1.5,1.3-1.5,1.3c0.9,0.8,0.6,0.6,1.3,1.6s0.9,2.5,0.7,3.4c-0.2,1-0.8,2.4-3.1,3.3c-2.3,0.8-2.9,1.5-2.9,1.5
			s-0.4,0.8-3.7,2.5s-3.1,3.1-3.1,3.1c0,1.9-1.3,3.3-2.1,4.2s-4.7,3.5-5.6,4c-0.9,0.5-4.1,2.8-4.8,3.3c-0.6,0.5-1.9,2.1-1.9,2.1
			c-3.7,3.5-3.5,3.9-3.5,3.9c-0.2,0-1.2,1.1-1.2,1.1l-4,4.4c0,0,1.5-1.1,0-0.1c-1.5,0.9-3.9,3.6-3.9,3.6c-3.7,4.2-6.1,3.5-7.3,3.5
			c-1.2,0-2.2,0.4-2.2,0.4c-0.4,1.7-1.3,1.8-1.3,1.8c-0.7-2.7-2.1-1.1-2.1-1.1c-1.7,2.2,0.2,1.9,0.2,1.9c-0.4,0.2-6.1,6.1-6.1,6.1
			s-2,3.9-2.6,4.9c-0.6,1-0.8,1.1-0.8,1.1l-0.8,0.6c0,0-2.1,0.9-4.4,1.9s-4.1,1.3-4.1,1.3c-0.9-0.1-1.3-1.2-1.3-1.2
			c-6.1-0.7-6.7-1.7-6.7-1.7c-8.3-1.5-6.3,1.8-6.3,1.8c-0.4-1.3,5,0.9,5,0.9c-2.3-0.6-5.5,2.1-5.5,2.1c-0.6-0.7-0.9-1.1-1.1-1.2
			c-0.2-0.1-0.3,0-0.3,0c-1.3,1.5-0.4,5-0.4,5c0.9,2.7,1.5,4.4,1.7,5.6c0.3,1.9-0.3,2.4-0.9,2.7c-3,1.4-1.4,2.7-1.4,2.7
			c2.2,1.7,1.5,3.2,1.5,3.2c0,0.7,0.1,1.3,0.2,1.8c1.1,5.5-1.6,3.6-1.7,3.6C112.3,760.8,112.7,761.4,112.8,761.7z"/>
	       <text class="map_text"; transform="matrix(1 0 0 1 135.7198 639.5441)">Chugoku</text>
	</symbol>
			
	<symbol id="shikoku" viewBox="0 0 850.5 935.7">
		<path id="XMLID_20_" d="M224.8,743.7c-1.1,0.8-4.7,2.2-1.1,2.2c-1.4,0-2.4,4.5-4.8,4c-1.5-0.3,2.8-4,2.6-4c-0.3-0.1-2.1,0.5-2.2,0
			c-0.1-0.7,1-1.2,0.8-1.8c-0.1-0.4-4.9,0.1-4.8,0.1c-0.2,0,2.5-2,2.4-1.8c0.2-2.2-0.7-0.9-1.5-1.7c0.1,0.1,1.3-1.7,1.6-1.7
			c2.3-0.1,1.6,1,3.8,2.2C222.5,741.7,225.2,743.4,224.8,743.7z"/>
		<path id="XMLID_21_" d="M285.2,723.5c0.8,0.6-1.7,5.5-1.2,6.2c-1.2-1.5-1-1.2-2.7-0.6c-0.4,0.2,1.5-2,1.5-1.5
			c0-2.4-4.1,3.3-3.8,3.2c0.4-0.1-0.4-3.3-1.5-3.8c-0.3-0.1-4,2-3.1,0c0.6-1.3,1.3-1.1,1.3-3c2,0.9,2.9-0.4,4.4-1.5
			c0.8-0.6,4.9-0.5,5-0.6C284.4,722.3,284.7,723,285.2,723.5z"/>
		<path id="XMLID_23_" d="M253.7,734c-2.3,1.8-2.1-0.1-0.6-1.9C253.1,732.1,254.2,733.6,253.7,734z"/>
		<path id="XMLID_26_" d="M256.6,732.9c-0.4,0.4-0.8,0.8-1.3,0.9c0.3,0-0.1-1.2-0.6-1.4C254.7,732.5,257.6,731.7,256.6,732.9z"/>
		<path id="XMLID_27_" d="M272.4,727.1c-0.4,0.4-4,1.1-3.2-0.3C270.1,725.4,273.1,726.5,272.4,727.1z"/>
		<path id="XMLID_28_" d="M170.4,795.6c0,0,1.9-2,2.3-2.3c0.4-0.4,0.8-0.6,1-0.7c0.2-0.1,0.7-0.3,1.1-0.3c0,0-0.2,0.5,0.4,0.9
			c0,0,0.2-0.3,0.3-0.7c0,0,0,0.2,0.6,0.2c0.6,0,0.6-0.2,0.4-0.5c-0.2-0.3-0.7-0.6-0.8-0.6c0,0,0.6,0.1,1.5-0.4s1.3-0.7,1.3-0.7
			s0.9-0.5,1.4-0.5c0.5,0,0.9,0,1.5,0.7c0,0-0.2-0.1,0.5-1c0,0,1.2-1.2,2.2-2c1-0.8,1.7-1.5,1.7-1.5l1.8-1.5l1.6-1.3
			c0,0,1.1-0.9,1.2-1s0.5-0.5,0.6-0.6c0.1-0.1,1.3-1.6,1.6-1.8s1.5-1.4,2.2-1.8c0.6-0.4,0.9-0.6,2.4-1.4c1.5-0.9,1.8-1.1,1.8-1.1
			s1.9-1.2,2.5-2.4c0,0,0.9-1.4,1.1-3.3c0.2-1.9,0.2-3,0.2-3s0.2-2,0.7-3c0.5-1,1.3-0.9,1.3-0.9s1.2,0.2,1.5-2c0,0,0.2-0.9,0.2-1.4
			c0,0,0.2-2.1,0.5-2.7c0,0,0-0.2,1.8-1.4c1.9-1.2,2.3-1.4,2.3-1.4s1.7-1.1,2.6-1.9c0.9-0.8,0.9-1.3,0.9-1.3s0.1-0.5-0.9-0.7
			c0,0-0.8-0.1-1.1-0.1c0,0,1.2,0.1,1.7-0.6c0.6-0.6,0.8-1.2,0.8-1.2s-0.1,0.2,0.1,0.8c0.3,0.6,0.5,1,0.5,1c0,0,1.3,2.1,1.6,2.4
			l2.1,2.8l1.4,1.9c0,0,1.5,2.1,1.9,2.6c0.3,0.5,0.7,1.1,0.8,1.4c0,0,0.3-0.3,0.4-0.6c0,0,0.3,1.1,0.3,1.1c0,0,0.3-0.1,0.9-0.5
			c0.6-0.4,1.4-0.8,1.4-0.8l2-1.2l1.2-0.7c0,0,0.7-0.4,0.8-0.4l0,0.2c0,0,0.1-0.3,0.5-0.5c0.4-0.1,0.8-0.2,0.8-0.2s1-0.1,1.6,0
			s1,0.1,1.1,0.1c0,0,0.1-0.3,0-0.6c0,0,0.2,0.4,1.4,0.5c1.2,0.1,1.5,0.1,1.5,0.1s1.9,0,2.5-0.1c0,0,2.3-0.2,3.2-0.4
			c0.9-0.2,1.6-0.3,1.9-0.5c0.2-0.1,0.5-0.3,0.2-0.5c0,0,0-0.1,0.3-0.4c0.3-0.3,0.4-0.4,0.4-0.4l1.3-1.2c0,0,1.5-1.2,1.8-1.4
			s1.5-1.6,1.3-3.5c-0.2-1.9-1-3.8-1.4-4.5c-0.4-0.6-1.3-2.3-1.8-2.7c0,0-1.1-1.3-1.5-1.5c0,0,1.1,0.8,2.9,1.1
			c1.7,0.3,2.7-0.1,2.7-0.2c0,0,1.1-0.6,1.5-0.9c0,0,1.3-0.9,1.9-1.1c0.6-0.3,0.9-0.4,1.3-0.4c0,0-0.5,0.1,0.5-1
			c0,0,0.7-0.6,0.8-0.6c0.1,0,0.7-0.3,0.7-0.3s0.8-0.4,1-0.5c0.2-0.1,1.5-0.8,2.3-1.7s0.8-1.7,0.8-1.7s0,0.4,1,0.1
			c0,0,0.7-0.2,1-0.7c0,0-0.3,0.5,0.9,0.9c0,0,1.3,0.5,2.7,0.8c0,0,1.8,0.4,2.1,0.4c0,0,1.6,0.2,1.7,0.3s0.3-0.7,0.3-0.7l0.3-1.5
			c0,0,0.1,0.3,0.4,0.7s1,1.3,1,1.4c0,0.1-0.3-2.6,0.1-2.7s1.1,1.1,1.7,2.5c0.7,1.3,0.9,1.7,0.9,1.7c0.1,0,0.4-0.4,1.1-1.3
			c0.6-0.9,0.8-1.2,0.8-1.2s0.1-0.2,0.4,0.2s1,1.3,1.2,1.7c0.2,0.4,1.1,2,1.2,2.3c0.1,0.3,0.4,1,0.1,0.9l1,0.3c0,0,2,0.6,2.9,0.9
			c0.9,0.3,1.9,0.8,2.1,0.9s1.3,0.7,1.6,1c0,0-1.2,0.4-1.2,0.6c0,0-0.2,0.1,1.2,0.4s2.2,0.2,2.2,0.2c0.2,0,3.4-0.4,4.7-0.4
			c1.3,0.1,2.8,0.2,3.1,0.7c0.4,0.5,0.2,0.7,0.1,1s-0.2,1.4-0.2,3.3c0,0-0.1,2.8-0.5,3.8c-0.4,1-0.7,1.4-0.7,1.6
			c0,0.2-0.6,1.3,1.8,3.5c0.1,0.1,1.6,1.5,2.7,1.7c0,0,1.1,0.4,1,1.2c-0.1,0.8-0.1,1.4-1.5,3.7s-1.1,2.1-1.1,2.1s3-0.6,3.5-0.3
			c0,0,0.2,0.5-2.3,0.9c0,0,1.4,0.4,3.2-0.3c0,0-3.9,1.8-4.8,2.7c0,0-2.6,1.8-3.1,2.5c0,0-0.4,0.5-0.4,0.9c0,0.4-1.4,1.6-3.3,2.5
			c-2,0.9-4.4,2.1-5.1,2.6c-0.6,0.5-1.3,0.9-1.4,2c0,0,0.1,0.4-0.7,1.4c-0.8,1-1.2,1.3-1.5,2.3c0,0-1.4,1.5-1.9,1.8c0,0-1,1.4-1.3,3
			c0,0-0.9,2.8-1.3,4.5c-0.4,1.7-1.8,8.3-2.1,9.6c0,0-0.3-1.1-3.9-3.4c0,0,0.1-0.8-2.1-3.8c-2.2-3-1.9-2.6-2.2-3
			c-0.3-0.3-0.8-0.8-0.8-0.8s-4.7-3.7-4.9-3.8c-0.1-0.1-7.2-1.1-7.3-1.3s-0.3-1.6-2.7-1.3c0,0-1.7,0.1-5.3,1.8s-5,2.7-5,2.7
			l-1.8,1.1c0,0-0.6,0.5-1,1.3s-2.1,1.5-2.1,1.5s-4.1,1.8-4.3,2.2c0,0,0.3-0.7,0.3-0.8c0,0,0.1-0.5-0.9,0.1c0,0-1,0.6-1.6,1.1
			s-0.7,0.6-1.3,1.3c-0.6,0.6-0.9,1.5,0.5,1.5c0,0-1,0-0.8,1.1c0,0,0,0.8,1,1c0,0,0.1,0.1,0,0.4s-0.3,1.3-0.5,2.1
			c-0.2,0.8-0.9,2.6-0.9,2.6l-0.9,2.5c0,0,0.4-0.9-1.5,0.6c-1.9,1.5-0.1,0-0.1,0s-0.8,0.7-1.4,1.8c-0.1,0.1-0.7,1.2-1.3,1.9
			c-0.7,0.7-0.9,1.3-1.4,2.5c0,0-0.2,1-1.9,0.5c-1.7-0.5-2.4,0.3-2.4,1.1c-0.1,0.8-1.6,5.5-1.6,4.6c0,0,0.3,0.9,0.9,1.7
			c0.6,0.7,0.6,1.4-0.1,1.8c-0.7,0.4-1.4,0.6-1.4,0.6s-1.1,0-0.1,2.1c1,2.1,2.4,4.7,2.4,4.7s0.9,1.7,0.4,1.8c-0.5,0.1-1.7-1.2-2.3-2
			c-0.5-0.8-0.5-1.1-0.5-1.3c-0.1-0.2-0.1-0.6-2-0.2c0,0-1.5,0.3-2.5,0.7c0,0-0.1-0.3-0.1-0.5c0.1-0.1-0.4,0.8-2,1.1
			c0,0-1.5,0.2-2,0.2c-0.5,0-1.2,0.1-1.3,0.2c0,0,0.5-0.2-1.8-1.6s-1.8-0.5-1.4-0.1c0,0-0.4-0.7-1.5,0.1c-1.1,0.9-1.3,0.9-1.4,1
			c-0.1,0-0.6,0.2-1-0.2c0,0,0.1,0.1,0.4-0.7c0.3-0.8,0.5-1.2,0.5-1.2l0.4-1c0,0,0.2-0.5,0.3-0.5c0,0,0,0,0.1,0.1
			c0,0-0.6-1.2,0.9-2.2c0.3-0.2,0.8-0.5,1.3-0.9c0,0,0.7-0.4,0.7-1.2c0,0-0.1,0.1-0.5-1.3c0,0-0.2,0.1-1.5,0
			c-1.4-0.1-1.8-0.3-2.2-0.1c0,0-1,0.5-1,0.5s-0.4,0.2-0.7,0.1c-0.3-0.1-1-0.7-1-0.7s-1.2-1-2-1.1c-0.8-0.1-1.2,0.2-1.5,0.9
			c0,0-0.2,0.6-0.2,0.7c0.1,0,0.4-0.1,0.5-0.1c0.1,0,0.6-0.2,0.6,0c0,0.1-0.3,0.6-0.5,0.7c-0.2,0.1-0.4,0.3-1,0.1
			c0,0-0.5-0.2-0.9-0.4c0,0-0.9-0.7-1.2-0.9c-0.3-0.3-0.8-0.8-0.8-0.8l1.1-1c0,0,1.2-1,1.4-1.2s0.4-0.2,0.5-0.2c0,0-0.3,0,0.1,0.8
			c0.4,0.9,0.9,0.7,0.9,0.7s0.2-0.1,0.4-0.2c0,0-0.8-1.5-1-1.9c0,0-0.9-1.6-1.2-1.9c0,0-0.7-1-1-1.2c-0.3-0.2-0.5-0.3-0.7,0.3
			c0,0,0.4-1.5-1.8,0c0,0-1.1,0.8-1.3,1.2c0,0,0.3-1.6,0.7-2.4c0.4-0.8,0.4-0.8,0.8-0.6c0.4,0.2,1.1,0.5,1.3,0.6s1.6,0.8,1.4-1.7
			c0,0-0.3-2.1-1.1-2.2c0,0,0.6-0.1,1.4,0.2c0.9,0.3,1.3,0.2,1.3,0.2s0.3-0.1,0.5-0.3c0.1-0.2-0.9-0.4-1.3-0.6
			c-0.4-0.1-1.9-0.6-1.9-0.6s-1.2-0.4-1.2-0.9s1.8-1.2,1.8-1.2s-0.5,0-1-0.7c-0.5-0.7-0.7-1-1.6-1.1c0,0,2.2,0,2.3-0.2l0,1
			c0,0-0.2,0.8,1.2,0.4c0,0,0.6-0.4-0.1,1.2c0,0,3-1.8,0.8-1.8c0,0,1.1-1.2,1.7-1c0,0-1.2-0.5-0.7-1.1c0,0,0.2-0.4,0.9,0
			c0,0-0.3-0.4,0.2-1.7c0,0,0.2,0-2.1-0.2c0,0-1.3-0.1-1.3,0.6c0,0,0.1-2.4,2.7-3.1c0,0-5.7,0.9-7.1-0.5c0,0-0.4-0.5,0-1.3
			c0.4-0.8,0.3-2.9,0.3-2.9s0-2.2,0.6-2.9c0.6-0.7,0.5-0.6,0.9-1l-3.2-1.8c0,0,0,0.1-0.4,0.7c-0.5,0.5-1,1.1-1.1,1.4
			c0,0-0.7-1.1-0.9-0.9c0,0-0.5,0.6-1.5,1.3c-1,0.7-3,2-3,2s-2.6,1.5-3.8,2.1c-1.3,0.5-1.8,0.6-2.1,0.4c0,0,0,0.1,0.4-0.2
			c0.4-0.3,0.7-0.9,0-1.1c-0.8-0.2-1.6,0.5-1.8,0.7C171.5,794.5,170.4,795.6,170.4,795.6z"/>
	       <text class="map_text"; transform="matrix(1 0 0 1 247.4388 835.6049)">Shikoku</text>
	</symbol>
	
	<symbol id="kyusyu" viewBox="0 0 850.5 935.7">
		<path id="XMLID_30_" d="M92.3,847c0,2.1-4.6,8.7-5.7,8c-0.2-0.2-0.3-1.9-0.2-2.3c-1.7,0.6-4.2,1.6-5.7,1.6c-0.2,0,0.4-1.6,0.4-1.6
			c0-1.8-2.5,1.4-2.5,1.4c1.1-1.7,2.1,4.5-1.2,4.5c0.6,0-0.8-1-0.7-1c0.2,0.2-0.8,1.4-0.8,1.6c0.4,0.2,0.9,0.2,1.4,0.2
			c-1.7-0.8-4.1,5.4-4.1,3.3c0,1.9-0.9,2.2-2.5,2.2c-0.6,0,0.9,2.4,0,2.5c-0.2-0.4-0.5-0.4-0.8,0c0.6,0.4-1.6-3.1-1.3-1.8
			c0,0,0.9-4,0.1-3.2c-0.3,0.4-0.7,0.5-1.2,0.4c0.6-0.2,1.2-2.9,2.4-3.4c0.3,0.4,0.5,0.9,0.5,1.5c-1.8-4-1.7-2.6-1.8-8.4
			c0-2.8,5.2-7,7.5-7.6c5.8-1.4,1.5,4.5,2.4,5.6c0.7,0.8,6.2-3.6,6.9-4c2.8-1.4,2.2,0.8,4,1C89.8,847.7,92.3,844.5,92.3,847z"/>
		<path id="XMLID_31_" d="M46.6,797.6c-1.4,1-1.6,5-3.7,3.9c5.2,2.8-8,9.8-6.3,5.1c-0.1,0.2,2,1.3,2.4,1.3c-0.2,0-1.7-5.1,1.3-2.5
			c-0.4-0.3-1.6-2.9,0-3.9c0.9-0.6,0.7-1.3,0.7-2.6c0-0.7,4-2.7,3.9-2.7c-0.1,0.5-0.2,0.9-0.1,1.4c0-1.2,1.7-1.1,1.6-1.8
			c0-0.3-1.6-0.1-1.5-0.4C45.9,792.4,48.2,796.6,46.6,797.6z M14.2,839.9c-1.6,1.2-3.4-0.4-4.4-0.3c-4,0.5,0,2.7-1.3,4
			c0.2-0.3-6.7-0.1-6.1-0.1c-4.4,0.1-1.5-3.3-1.1-5c-0.3,1.2,0.6,4.1,0.7,3.7c0.2-0.7,0.4-3.8-0.4-4.9c-1.3-1.6,2.9-8,2.4-3
			c0-0.1,2.7-0.7,2.9-0.6c-0.7-0.3,0.3-0.7,0.2-0.9c0.1,0.8,0.4,1.3,1,1.6c0.1-0.3,0.8-1.5,1.2-1.2c-0.6-0.5-0.9,0.3-1.6,0.2
			c-0.1,0,2-2.4,2-2.4c0.1,0.3,0.5,3.2,0.1,2.7c0.4,0.5,1.2-0.1,1.5-0.3c-0.7,0.5,0.6,0.8,0.8,0.8C9.9,833.9,13.7,840.4,14.2,839.9z
			 M14.7,831.2c-5,4.1-1.5-1.7-3.8-2.2c0.9,0.2,2.9,1.9,1.8,2.4c0.2-0.1,0.6,0.1,0.7,0.4c-0.3-0.6-0.9-2.5-0.9-3.1
			C12.5,828.6,15.7,830.3,14.7,831.2z M17.1,828.4c0,0-0.7,2.4-0.7,2.4s-1.4-1.4-1.1-1.1c0.1-0.5-2.4-2.2-2.2-2.2
			c0.3,0.1,2.5-2.4,2.9,1.2c-0.1-0.6,0.2-0.8,0.3-0.6c0,0,0.2-1.6,0.1-1.9C16.8,827.2,17.1,827.2,17.1,828.4z M20.5,825.3
			c-0.2,0-0.1,2.9,0,2.9c-0.5-0.1-0.7-1.3-0.4-1.4c-0.5,0-1.2,0.1-1.8,0.6c0.1-0.1-1-2.6-0.7-2.5c0.6,0.4,1.8,1,1.8,1.4
			c-0.1-0.4-1.9-2.8-1-3.1C19.7,822.7,20.8,825.3,20.5,825.3z M28,820.6c-2.7,1.7-2.8,0.3-3.8,0.7c-1.1,0.4,0,5.8-0.4,6.1
			c-0.9,0.7-1,1.8-1.8,2.4c-0.3,0-0.6-0.1-0.8-0.3c-0.1,0,0.5-4.2,0.5-3.6c0,0.4-0.7-2.6-0.3-1.8c-0.2-0.3-1.8-2.4-2.4-1.8
			c0.8-0.9,3.3-3.4,3.1-5.9c0,0.5,0.2,1.5,1.4,3.3c0.8,1.2,3.2-1.9,4.1-1.2C28,818.7,28.2,820.5,28,820.6z"/>
		<path id="XMLID_52_" d="M77.7,842.4c0,0-2.7-1.9-1.5-4.8c0,0,0.5-1.5,3-2.9c0,0,0.9-0.1,0.2-1.9c-0.6-1.8-1.7-2.2-1.7-2.2
			s-0.3-0.3-2.8,0.5c-2.5,0.8-3.7,1.2-3.7,1.2s-1.5,0.5-2.1,0.2s-2.3,0.5-3.6,2.8c0,0-2.8,4.5-3.8,5.6s-2.9,3.2-5.4,3.1
			c0,0,0.5,0.3,2.5-3c0,0,1.5-2.5,1.4-3.8c0,0-0.4,0.6-1.3-0.4c0,0,0,0.2,1.4-0.8c0,0,0.5-0.4,0.6-0.2c0,0-0.7,0.5-0.3,1
			c0,0,0.6,0,0.9-0.6c0.3-0.7,0.1-1.1,0.1-1.1s-0.2-0.6-0.4-0.1s-0.5,0.5-0.7,0.3l-0.1-0.1c0,0,0.3-0.3,0.4-1.3c0,0-2.2-1.6-4.5-4.2
			s-3.1-3.5-3.6-4.2c-0.5-0.7-1.4-1.9-1.4-2.2c0.1-0.3,0.2-1.1,0-4.7c-0.1-3.6,1.1-4.4,1.5-4.4c0,0-1,0.2-0.2-1.3l0.3-0.4
			c0,0,0.8-0.5,1.7,0.8c0,0,0.3,0.3,0.7,1.4c0,0,0.3,0.6,0.4,0.8l-0.1,0c0,0-0.1-0.1,0.4,0.8s0.7,1.3,0.8,1.7l0.3-0.5
			c0,0,0.1-0.4,0.8,0.2c0.8,0.6,1.9,1.8,2.2,2.3c0.3,0.4,0.4,1.2,0.2,2.2c-0.2,1-0.3,1.8-0.2,2.4c0.1,0.5,0.3,1.3,1.1,2
			c0,0,0.2,0.2,0.1,0.3c-0.1,0.1-0.4,0.4-0.8,0.5c0,0,0.4,0.6,0.9,1l0.2-1.1c0,0,0.2,0.5,0.7,0.6c0,0-0.3-1.5,0.3-1.9
			c0.6-0.4,1.3-0.2,2.5,0.4c1.2,0.5,2.3,1.3,3,1.6c0.6,0.3,1,0.5,1.3,0.3c0,0-0.4-0.6-0.7-1c0,0-1.2-1.5-1.2-1.6
			c-0.1-0.1-1.4-2.1-1.7-2.8s-1.1-2.3,0.3-2.8c0,0,1.3-0.2-0.1-2.1s-3-2.6-3-2.6s-0.4-0.2-0.8-0.1c0,0-0.1,0-0.5,0.3
			c-0.4,0.4-1,0.6-1.5,0.8c-0.5,0.1,0.3-1.3,0.3-1.5c0,0-0.1-0.4-0.7-0.3s-0.7,0-0.7,0c0,0-0.1-0.1,0.1-0.5c0,0-0.3-0.2-0.8-0.3
			c-0.5,0,0,0,0,0s0.2,0-0.2,0.5c-0.4,0.5-1.1,0.8-1.1,0.8s-0.6,0.3-0.9,0.1c-0.3-0.2-0.2-0.7-0.2-1.4c0-0.8,0.1-1.5,0.1-1.5
			s0.1-0.6,0.3-0.7c0,0,0.2-0.1,0.4,0.3c0,0-0.6-0.7,0.5-1c0,0-0.1,0.1-0.5-0.5l-0.3-0.5c0,0,0.1,0-0.2,0.3
			c-0.3,0.3-0.7,0.6-0.8,0.9c0,0,0-0.2-0.3-0.8c0,0-0.4-0.7,0.1-1.1c0,0-0.6,0.4-0.8,1c0,0-0.2,0.5-0.7,1.3c0,0-0.3,0.4-0.7,0.7
			s-0.7,0.3-0.7,0.3s-0.1,0-0.2-0.3s-0.2-0.7-0.2-0.9s-0.1-0.5-0.1-0.5c0,0,0.1,0.2,0.3,0.3c0.2,0.1,0.6,0,1.1-0.4
			c0,0,0.5-0.4,0.7-0.4c0,0-0.4,0.1-1-0.6c0,0-0.7-0.7-0.9-0.8c0,0-0.4-0.4-1.1-0.4c0,0,0.4-0.7,0.5-0.9c0.1-0.1,0.3-0.6-0.1-0.8
			c0,0-0.3-0.1-1.3,0.3c0,0-0.2-0.8-0.1-1.2c0,0-0.1,0.5-0.9,0.7c0,0-0.7,0.2-1-0.2c0,0,0.3,0.1,0.4-0.4c0,0,0,0.9-1.6-0.6
			c0,0-1.2-1.2-0.2-1.2l1.3-2.1l1.3-2.1c0,0-0.7,1.2-1.2-1.5c0,0-0.5-2.4,1-2.7c0,0,0.2-0.1,1.1,0s1.6-0.4,2.2-1
			c0,0-1.2,1.2-0.3,1.6c1,0.4,3.3,0.2,4.2,0s1.7-0.3,1.7-0.3s0.6-0.1,0.5,0.6c0,0,0,0.2,0,0.3c0,0,0.5,1.1,1,1.8
			c0.6,0.7,0.8,1,1.4,2.2c0,0-0.3-1.1,0.7-3.4c1-2.3,0.6-3.3,0.4-3.6c0,0-0.2,0.1-2.7-1.1c0,0-2.7-1.3-0.5-1.6c0,0,0.5,0,0.4-0.5
			c0,0-0.1-0.2,0.4,0.1c0.5,0.3,1.4,0.9,1.4,0.9s0.1-0.2,0.3-0.5s0.3-0.7,0.3-0.7s-0.2,0.3-0.3,0.3s-0.2-0.2-0.3-0.4
			c0,0-0.1-0.5-0.2-1.5c0-1,0-1.3,0-1.3s0.1-1.4,0.4-1c0,0-0.3-0.6-0.3-1c0-0.4,0.1-0.4,0.3-0.4c0,0,0.5,0.5,0.8,0.9
			c0.3,0.4,0.5,0.7,0.5,0.8c0,0,0.6-0.3,0.9-0.4c0.3-0.2,0.6-0.3,0.7-0.5c0.1-0.1,0.7-0.3,1.2-0.1s0.6,0.3,1,0.6
			c0.4,0.3,0.6,0.5,0.6,0.5s-0.3-0.2-0.2,1.6c0.1,1.8,0.7,2.6,0.9,2.9c0.2,0.3,0.9,0.7,1.7,0.2s0.8-0.6,0.8-0.6s0.3-1.3,0.7-2.1
			c0,0,0.4-0.7,3-1.6s2.7-1.8,2.7-2.8c0,0,0.1,0.4-1.3,0.5l-1,0.1c0,0-0.5-0.5,0.2-0.7c0,0-0.8-0.7-1.2-1.7c-0.4-1,0.4-0.7,0.4-0.7
			s0.4,0.2,0.5,0.3s0.6,0.4,1.6-0.5c0,0,1.1-1.1,1.3-1.5l1.2-1.6c0,0,0.6-0.8,0.7-0.8c0,0,0.2,0,0.7,0.9s0.8,1.3,0.8,1.3
			s0.9,1.3,1.7,1.1c0,0,0.2,0.5-0.2,1c0,0,2,0,2.2,0c0.2,0,1.3,0,1.4,0c0.1,0,1.8,0.1,2.5-1.8s0.9-1.8,1.3-2c0,0-0.5,0.2-1.8,0
			s-1.9-0.4-1.9-0.4s0.5,0.1,1.2-0.6s1-1,1-1l0.9-1c0,0,0.4-0.5,1-0.6s1.2-0.5,1.4-0.8c0.2-0.4,0.3-1.1,0.1-1.7s-0.5-1.6-0.7-2.1
			c-0.2-0.5-0.3-1-0.3-1s0-0.3,0.1-0.5s0.6-0.3,0.6-0.3l0.5-0.2c0,0,0.4-0.1,0.4-0.8c0-0.7,0-1,0-1c0,0-0.1-0.3,0.5-0.5
			c0.6-0.3,2.2-0.6,2.7-0.7c0,0,1.4-0.2,1.9-0.2s0.7,0,0.9-0.1s0.8-0.2,1.1-0.4c0,0,0.9-0.5,1.6-1.2c0.7-0.7,1.3-1.2,1.3-1.2
			s0.8-0.8,1.8-0.7c0,0,0.7,0,1.9,0.7l0.1-1.3l0.7,0l0.1,1.3c0,0,1.1-1.1,0.8-1.3c0,0,1.1-0.2,1.6-0.1s1,0.3,1.5,0.5l-1.8,0.4
			c0,0,0.5-0.1,2.6,1.3c2.1,1.4,2.8,1,3.8,0.7s1.5-1.3,1.6-1.6c0.1-0.2,0.6-1,0.7-1.1c0.1-0.1,0.5-0.5,1.2-0.1
			c0.7,0.4-0.2,1.8-0.2,1.8s-1.2,1.4-0.3,1.3c0,0,0.5,0,0.3,0.7c0,0,0.1-0.6-0.6,0.7c-0.6,1.3-0.9,2.2-0.9,2.2s-0.6,2.2,1.5,1
			c0,0,0.4-0.3-0.2,0.6c0,0-0.4,0.6-0.5,0.7c0,0,1,1.6,1.1,1.6c0,0,0.6,0.9,0.6,1c0,0-0.3,0,0.1,0.8c0.4,0.8,1.4,2.6,1.7,3
			c0.2,0.4,1,3.3,5.6,3.8c0,0,1.7,0.4,2.1,0.6c0.4,0.1,1.6,1,2.4-0.2c0,0-0.9,0.9,2.4,1.7s6.7,1.2,6.7,1.2s-1.3,0,0.7-2.8
			c2-2.8,3.6-4.2,3.6-4.2s-0.4-0.9,2.8-0.3c3.2,0.6,4,1.3,3.6,1.4c0,0,0.3-0.2,0.4-0.5c0,0,0.1-0.1,0.1-0.1c0,0,0,0,0.2,0.3
			c0.2,0.3,0.7,1.1,0.7,1.1s1.1,1.7,1.4,2.1c0.3,0.4,1,1.1,1,1.1s0.7,0.7,0.8,1.8c0.1,1.1-0.2,2.4-0.2,2.4s-0.3,1.3-0.1,2.1
			s0.4,1.4,0.4,1.4s0.3,0.8-0.1,1.6c-0.4,0.8-1.4,1-2,1.1c-0.6,0.1-2.6,0.1-2.6,0.1c0,0,0.4,0.3-0.7,2c-1.1,1.8-2,2.3-1.9,1.3
			c0,0,0.1,0.6-1.6,0.7c-1.7,0.1-2.9-0.1-3.6,1.1c-0.7,1.2,1.6,3.2,2.7,3.9c1.1,0.7,1.8,1.6,3.6,0.9c1.8-0.7,2.4-0.4,2.9-0.3
			c0,0,0-0.4-0.1-0.5c0,0,0.3,0.3,0.9-0.7c0,0-0.1,0.2,0.5,1.2c0,0,0,0.4,2.4,0.4c2.4,0,3.6-0.2,3.6-0.2s2.8-0.3,4.1-0.7
			c0,0-2.5,4.2-3.2,5.7c-0.7,1.5-0.9,2-1,2.8c0,0-0.2,0.5,0.8,0.6c0,0,0.8,0.1,1.6-0.3c0.8-0.4,2.1-0.6,2.5-0.4c0,0-0.2-0.1-1.7,1.2
			c0,0-0.8,0.6-1.3,1.3c0,0,0-0.4,2,0.3c0,0,1.3,0.5,1.5,0.5c0,0,0-0.8,0.4-1.3l0.3-0.2c0,0,0.2,0,0.4,0.1c0.1,0.1,0.2,0.1,0.4,0.3
			c0.2,0.2,0.5,0.3,1.5,0c0.1,0,0.8-0.3,0.8-0.3s-0.6,0.2-0.2,0.9c0.4,0.7,1,1.1,1,1.1s-0.7-0.5-1.4-0.3s-1.3,0.4-2.8,2
			c0,0-0.8,1-1.4,1.9l-0.1,0.2c0,0-0.1,0.1,0.1,0.5c0.2,0.4,1.1,1.9,1.1,2.2c0,0,0.1-0.1,1.2-0.2c0,0,1.2-0.1,1.3-0.3
			c0,0-0.2,0.2,0,0.8c0,0,0.2,0.5,0.5,0.5c0,0,0-0.4,0.5-0.9c0,0,0.3-0.3,0.5-0.1c0,0-0.2,0.6-0.4,1.2c0,0,0.1,0.3,1.2-0.2
			c0,0,1.5-0.7,2.3-0.7c0.8,0.1,0.8,0.8,0.8,1.1c0,0,0-0.7-1.2-0.4c-1.2,0.3-1.8,0.7-1.8,0.7s-1.6,0.8-1.1,1.2c0,0-0.4-0.2-0.4-0.4
			c0,0-0.1-0.2-0.1-0.3c0-0.1,0-0.2-0.2-0.2c-0.2,0-0.4,0.1-0.4,0.1s0.2,1.4,1,1.5c0,0-0.6-0.1-1.4,1.4c-0.8,1.5-0.6,2.3-0.4,2.3
			c0.1,0.1,0.2,0.2,0.9-0.3c0,0,0.6-0.4,0.8-0.3c0.1,0.1,0.2,0.2-0.5,1.3c0,0-1.1,1.5-1.6,1.3c0,0-0.1-0.1,0-0.5
			c0,0,0.1-0.4-0.3-0.2c-0.4,0.2-1.6,0.6-1.6,0.6s-1.8,0.7-2,0.6c0,0,0.8,0.4,0.3,1.2c0,0-0.1-0.4-0.2-0.6c0,0-0.3-0.7-0.6-0.2
			c0,0-0.3,3.1-0.5,3.3l0.1,0.3c0,0-0.1-0.7-0.3,0.1c0,0-0.2,0.5-0.3,1.2c0,0,0.1-1-1.8,0.7c-2,1.7-2.8,2.7-2.8,2.7s0.8-0.6,0.3,0.8
			s-1.4,2.3-1.6,2.5s-0.5,0.4-0.9,0.3c0,0-0.3-0.2-0.4-0.5c0,0,0.3,0.7,0.3,1.1c0,0.4-0.2,0.7-0.4,0.8c-0.2,0.2-0.4,0.3-0.5,0.4
			c0,0-0.2,0.1-0.3,0.2c0,0-0.3,0.2-0.3,0.4c0.1,0.3,0.8,0.7,0.9,0.8c0,0,0.7,0.3,0.7,0.6s0.2,0.5,0.1,0.9c0,0.4,0,0.9-0.1,1.1
			c0,0-0.2-0.3-1.2,0.5s-0.8,2.3-0.6,2.8c0,0,0,0.1-0.2,0.1c-0.2,0-0.4,0.1-0.6,0c0,0,0.3,0.2,1.3,0.5c0,0-0.6-0.2-1.6,0.9
			c-1,1.1-2,3.2-2,3.2s-1,2.2-1.5,3.4s-1.2,3.2-1.2,3.2s-0.8,2.4-1.1,3.4c-0.3,1-0.8,2.8-0.8,2.8s-0.7,2.8-0.8,3.2
			c-0.1,0.4-0.3,1.4-0.3,1.4s-0.4,2.1-0.5,2.2c0,0.2-0.3,1.5-0.5,2.7c-0.2,1.3-0.4,2.7-0.4,2.7s-0.1,1-0.2,2.5
			c-0.1,1.5-0.1,1.9-0.1,1.9s0,1.7,0.2,2.7c0.2,0.9,0.4,1.4,0.8,1.8s0.6,1,0.6,1.5c0,0.6-0.3,2-0.6,2.7c-0.3,0.7-0.8,2-1.1,2.6
			c0,0-0.9,1.8-1.2,2.3c-0.3,0.6-1.5,2.6-1.6,2.8c-0.1,0.1-0.4,0.8-1.1,3.1c-0.6,2.3-1.1,4.1-1.1,4.1s-0.4,1.8-0.5,2.4
			c-0.1,0.6-0.4,2-0.2,2.4c0,0,0,0.1,0.1,0.1c0.1,0.1-0.1,0.1-0.2,0.1c-0.1,0-0.7-0.2-1.3-0.4s-1.2-0.5-1.3-0.5s-1.5-0.7-1.8-0.9
			s-0.9-0.6-1.1-0.9s-0.2-0.4,0.2-0.6c0,0,0.5-0.1,0.7-0.2c0,0-1.3,0.1-2.1-0.1c-0.7-0.2-1.2-0.5-1.4-0.7s-0.3-0.6-0.3-0.7
			c0-0.1-2.3-0.5-2.3-0.5s-0.7-0.1-1.5,0.1c-0.8,0.2-1.5,0.6-2.1,1.2c-0.6,0.6-1,1.2-1.3,1.9c-0.3,0.6-0.7,1.6-0.6,2
			c0.1,0.4,0.2,0.8,0.8,1.3s2,1.2,3.3,1.2c0,0,0.2,0,0.2,0.1s0,0.2-0.1,0.3c0,0.1-0.6,1.3-0.6,1.3s-0.8,1.5-0.4,1.6
			c0,0,0.5,0.5,1.9-0.7c0,0-1.1,1.1-1.6,1.5c-0.6,0.5-1.5,1.3-1.5,1.3s-1.4,1.2-1.8,1.7c-0.4,0.4-0.9,1.1-0.9,1.1s-1,1.6-1,1.6
			s-1,1.5-2,2.2s-1.4,0.7-1.4,0.7s-1.4,0.1-2.9,0.7c-1.5,0.6-2.4,1.2-2.4,1.2s-0.4,0.1-2.7,2c-2.3,1.9-3.5,2.5-4.7,2.9
			c0,0,0.5-0.1,0.6-1.1c0.1-1,0.1-2,0.1-2s0.1-1.7,0.6-2.4c0,0,0.3-0.4,0.8-0.8c0.5-0.4,1.3-1.5,1.3-1.5s0.5-0.8,0.6-1.2
			c0.2-0.5,0.4-1.5,0.4-1.5s0.3-1.6,0.4-1.7c0-0.1,0.6-1.9,0.8-2.3c0.1-0.4,0.4-1.3,0.5-2c0.1-0.7,0.1-1.9-0.2-2.9
			c-0.3-1-0.6-1.9-0.6-1.9l-0.9-2.7c0,0-0.2-1.1-0.7-1.5c-0.5-0.4-1.1-0.9-1.5-1c0,0-0.6-0.5-0.7-0.9s-0.1-0.5-0.1-1.2
			s0.1-0.7,0.1-1c0-0.3,0.2-1.5,0.2-1.5s0.1-0.9,0-1c-0.1-0.1-0.1-0.1-0.5-0.3c-0.4-0.1-2.3,0.1-2.4,0c0,0-0.9,0-1.5-0.3
			c-0.6-0.3-0.8-0.8-0.8-1c0-0.2-0.1-0.6-0.1-0.9s0.1-0.9,0.7-1.3c0.6-0.5,1.3-0.7,1.3-0.7s1-0.3,1.9-0.2c0.9,0.1,1.4,0.4,1.8,0.8
			c0,0,0.1,0.2,0.2,0.6c0.1,0.4,0.2,1.3,0.3,1.5c0.1,0.2,0.2,1,0.7,1.2c0.5,0.2,1.2-0.6,1.2-0.6s0.5-0.5,1.3-2
			c0.8-1.4,1.2-2.3,1.2-2.3s0.5-1,0.5-1.3c-0.1-0.3-0.6-1.4-1-1.7c-0.4-0.3-0.7-0.5-1.3-0.7c-0.7-0.2-2.8-0.7-3-0.8
			c-0.2-0.1-2.3-0.6-2.8-0.4c0,0-0.4-0.1-0.7,1c-0.3,1.1-0.4,1.4-0.7,1.8c-0.2,0.4-0.5,0.9-0.6,1.1c-0.2,0.2-0.6,1-0.9,1.6
			c-0.3,0.7-0.7,1.6-0.7,1.6l-1.1,2.7l-0.8,2c0,0-0.7,1.6-1.3,2.2c0,0-0.2,0.1-0.1,0.2c0,0.1,0.1,0.5,0.2,0.9
			c0.1,0.3,1.1,2.7,1.1,2.7s0.8,1.8,0.8,2.3c0,0-0.3,0.9-0.3,1.3c0,0.4,0,1.2,0.4,1.7c0.4,0.5,0.6,0.9,1,1.2c0,0,0,0,0,0
			c0.5,0.4,1.2,0.9,2.4,1.4c1.2,0.5,1.7,0.8,1.7,0.8s0.5,0.2,0.5,0.4s0.1,0.1-0.1,0.7c-0.2,0.6-1.1,1.9-1.1,1.9s-1.2,1.7-1.7,2.3
			c-0.5,0.6-1.2,1.5-1.2,1.5s0.3-0.9-1.1-0.9c0,0-0.6,0-1,0.1c0,0-0.6,0.1-0.7,0.2c0,0-0.1,0-0.1,0.1s-0.5,0.3-0.9,0.2
			c-0.3-0.1-0.4-0.5-0.4-0.7c0-0.2,0-1.1,0-1.1s0.1-0.6,0-0.8c-0.1-0.2-0.1-0.3-0.1-0.3s-0.5-0.8-1.3-1.1c0,0-1.2-0.7-2.1-1
			c0,0-2.2-0.7-3.3-0.9c0,0-2-0.4-3-0.4c-1,0-1.1,0-1.5,0.1c-0.4,0.1-1,0.5-1,0.5s-1.2,0.8-1.6,0.4c-0.4-0.4-0.5-1.1-0.5-1.1
			s-0.1-0.8-0.1-1c0,0-0.5-0.1-0.7,0.6c0,0-0.1,0.1-0.1,0c0,0,0-0.2,0.1-0.3c0.1-0.2,0.3-0.5,0.3-0.5s0.3-0.5,0.5-0.6
			c0.1-0.2,0.2-0.3,0.2-0.2c0,0,0.1-0.3-0.2-0.4s-1-0.2-1-0.2s-0.4,0-0.6,0c0,0,0.3-0.1,0.4-0.5s-0.2-0.9-0.2-0.9s-0.3-0.6-0.4-0.8
			c0,0-0.5-0.7-0.7-0.9c-0.2-0.3-1-1.2-1.4-1.5c0,0-0.7-0.6-1.2-0.7c0,0-0.2-0.1-0.5,0.1c0,0,0.6-0.6,0.9-0.9c0.3-0.3,0.9-0.7,1-0.8
			c0.1-0.1,0.4-0.2,0.5-0.2c0.2,0,0.5,0.2,0.5,0.2s0.4,0.3,0.8,0.6c0.4,0.4,0.8,0.8,1,1c0.1,0.2,0.3,0.4,0.4,0.4
			c0.1,0.1,0.3,0.3,0.7,0.3c0.4,0,0.8-0.3,0.8-0.3s1.1-0.3,3.2-5.9c0,0,1.5-4.1,1.5-5.3s-0.4-2.5-1.4-4.3c-1-1.8-3.5-4.4-5.4-4.8
			c-0.2,0-0.2,0-0.6-0.1c-0.4,0-0.6-0.9-0.6-1s-0.2-1.1-0.1-2.1c0.1-1,0.5-3.3,1.9-2.4c0,0-0.9-0.3-0.3-2.9c0.6-2.7,0.5-2.8,0.5-2.8
			s0.3-2.1-1-2.7c0,0-0.5-0.2-1-0.3c0,0-0.1,0-0.1-0.1c0,0,0-0.1,0.1-0.4c0.1-0.2,0.3-0.9,0.3-0.9s0.5-1,0.6-1.2s0.3-0.7,0.4-0.8
			c0-0.1,0.2-0.5,0.2-0.7c0-0.2,0-0.6-0.3-0.9c0,0-0.3-0.2-0.5-0.3c0,0-0.4-0.1-0.3,0.1c0,0-0.3-0.4-0.5-0.6
			c-0.2-0.2-0.3-0.3-0.3-0.3s-0.7-0.5-0.9-0.6c-0.3-0.1-1-0.7-1.2-0.8s-0.8-0.7-1-1.1c0,0-0.3-0.5-0.3-1c-0.1-0.6-0.1-1.1-0.1-1.1
			s0-0.9,0.1-1.2c0.1-0.3,0.2-1.1,0.2-1.2c0-0.1,0-0.3,0.2-0.4c0.2-0.1,0.8,0.1,0.8,0.1s0.6,0.3,0.9,0.5c0.3,0.2,0.4,0.3,0.5,0.4
			c0,0-0.2-0.5-0.2-1c0-0.5,0.2-0.6,0.2-0.6s0.5,0,0.7,0s0.2,0,0.4,0.2c0.2,0.2,0.4,0.8,0.5,1c0.1,0.2,0.7,1.7,0.9,2.2
			c0.2,0.5,0.3,0.7,0.3,0.7s-0.1-0.2-0.4,0c-0.3,0.3-0.6,0.7-0.7,0.9c0,0-0.8,1.5-0.4,1.7c0,0,0.1,0.1,0.6-0.1
			c0.5-0.2,1.6-0.4,1.6-0.4s1.2-0.1,2-0.1c0.7,0,1.5,0.1,1.5,0.1s0.6,0,1.2-0.2c0.7-0.2,1.3-1.1,1.3-1.1l0.4-0.6
			c0,0,0.9-1.4,1.3-1.8s1.3-1.4,1.3-1.4l1.2-1.4c0,0,0.3-0.3,0.3-0.5s0.2-0.8,0.1-0.9c-0.1-0.2,0.1-0.9,0.3-1s0.4-0.4,1.1-0.3
			c0,0,0.2-0.3,0.1-0.8c0,0,0.8-0.1,1.2-0.3c0,0-1.5,0.1-1.3-0.6c0.1-0.7,0.6-1.2,2.2-2.7c0,0,0-0.4-1-0.4c0,0,0.5-0.4,1-1
			c0.5-0.6,2.4-2.7,2.4-2.7s0.8-0.9,0.9-0.9c0,0,0.4-0.3,0.1-1.2l-0.6-1.1c0,0-0.5-0.9-0.1-1c0.4-0.2,0.2-0.2,1.4-0.2l1,0.1
			c0,0-1.6-0.6-2-0.8c-0.4-0.2-0.9-0.5-1-0.8c0-0.3,0.7-1.1,0.7-1.1s1.5-1.5,2.5-2.1s1.1-0.7,1.8-1.1l-1-1.1l1.1-0.2
			c0,0,0.1,0,0.3-0.2s0.7-0.5,0.7-0.5s-0.5,0.2-0.9,0.3c-0.4,0.1-2.1,0.3-2.1,0.3s-2.1,0.3-2.6,0.4c-0.5,0.1-1.7,0.4-2,0.6
			c0,0-0.6,0.3-0.8,0.6c-0.2,0.4-0.2,0.7-0.1,1.1c0,0-0.5-1.3-0.7-1.4c0,0-0.4-0.6-0.8,0.2s-0.6,1.8-0.6,1.8s-0.4,1.2-0.8,1.5
			c-0.4,0.3-0.7,0.1-0.7,0.1s-0.3-0.1-0.4-0.2s-0.1-0.2,0-0.5c0.1-0.4,0.3-0.7,0.3-0.7s0.2-0.5,0.2-0.6c0-0.1,0.1-0.7,0.1-0.7
			s0-0.5,0.1-0.7c0.1-0.2,0.3-0.5,0.4-0.7c0.1-0.2,0.8-0.8,1.2-1.2c0.4-0.3,1-0.8,1-0.8l1-0.7c0,0,1.7-1.1,1.8-1.2
			c0.1-0.1,0.8-0.6,1-0.8s0.8-0.8,1.1-1.4s0.3-1,0.3-1l0.2-1.2c0,0,0.1-0.8,0.3-1.1c0.2-0.3,0.4-0.4,0.5-0.6s0.3-0.6,0.1-1.2
			c-0.2-0.6-0.6-1.4-1.2-2c-0.5-0.6-1.7-1.7-2.1-2c0,0-0.7-0.6-0.7-0.6c0,0-0.3-0.3-0.7-0.4c-0.5-0.2-1.5-0.5-1.5-0.5
			s-1.4-0.3-1.8-0.9s-0.5-1.5-0.5-1.5s-0.1-1-0.1-1.3c0,0-0.1-1.2-0.3-1.4s-0.9-1.8-0.8-2.2c0,0,0.6-0.6,0.6-1.5
			c-0.1-0.9-0.5-1.7-0.5-1.7s-0.7-1.4-1.2-2l-1.1-1.7c0,0-0.2-0.4-0.2-0.5c0,0-0.4,0.1-0.7-0.1c0,0-0.2-0.1-0.4-0.4
			s-0.4-0.4-0.5-0.4s-0.2-0.1-0.2-0.1s-0.4,0.5-0.8,0.5c-0.4,0.1-0.7,0.1-1.2-0.3c-0.6-0.4-1-1.3-1-1.3s-0.3-0.6-0.4-0.8
			s-0.3-0.7-0.3-0.7s0.3,0.7-0.5,0.6c0,0-0.5-0.1-1.1-0.4c0,0,0.3,0.2-0.7,1.8c-1,1.6-1.3,2.3-1.3,2.3s-0.9,1.5-1,2
			c-0.2,0.4-0.4,0.9-0.3,1.4c0,0,0.5,1,1.1,1.9c0.6,0.9,1.2,2.2,1.2,2.2s0.5,1,0.6,1.8c0.1,0.8-0.5,2.1-0.5,2.1s-0.5,0.7-1.5,1.5
			c-1.1,0.8-2.1,1.5-2.6,1.9s-1.4,1.1-1,1.3s0.8,0.4,3.6,0.3c2.7-0.2,3.6-1,3.6-1s0.8-0.5,1.6-0.6c0.8,0,1.6,0.2,2.4,0.7
			c0.9,0.5,1.7,1.7,2,2.1s1.4,2.1,1.3,4.1c0,0,0,0.9-0.4,1.6c0,0-0.2,0.6-0.5,1.3c-0.3,0.7-0.9,2.4-2,3.4c-1.1,1-2.2,0.9-2.9,0.6
			c0,0-0.1-0.1-0.7,0.7c-0.6,0.8-1.7,1.8-1.7,1.8c0,0-0.9,0.8-1.6,0.9C78,842.7,77.8,842.4,77.7,842.4z"/>
	       <text class="map_text"; transform="matrix(1 0 0 1 1.831055e-004 761.1982)">Kyusyu</text>
	</symbol>


	
  </defs>
</svg>